<svg width="119" height="120" viewBox="0 0 119 120" fill="none" xmlns="http://www.w3.org/2000/svg">
<rect width="119" height="120" rx="59.5" fill="#EFCA6F"/>
<path d="M45.9396 41.9973L39.3787 40.2793C39.3787 40.2793 35.4337 52.5315 40.9341 56.7381C46.4345 60.9448 45.9396 41.9973 45.9396 41.9973Z" fill="#685A56"/>
<path d="M24.2704 120C24.2704 120 31.199 86.0077 61.0342 86.0077C90.8693 86.0077 94.7295 120 94.7295 120H24.2704Z" fill="#373C44"/>
<path d="M41.4885 61.1452C44.3117 59.9821 45.6575 56.7505 44.4945 53.9273C43.3314 51.1041 40.0999 49.7583 37.2766 50.9214C34.4534 52.0844 33.1076 55.316 34.2707 58.1392C35.4337 60.9624 38.6653 62.3082 41.4885 61.1452Z" fill="#CE8282"/>
<path d="M84.3528 59.9485C86.5119 57.7894 86.5119 54.2888 84.3528 52.1297C82.1937 49.9706 78.6931 49.9706 76.534 52.1297C74.375 54.2888 74.375 57.7894 76.534 59.9485C78.6931 62.1075 82.1937 62.1075 84.3528 59.9485Z" fill="#CE8282"/>
<path d="M67.0508 76.1098L66.1176 63.8293L56.5236 65.1443L54.9612 83.102C57.3518 82.8415 59.6619 82.0852 61.7436 80.8812C63.8253 79.6772 65.6329 78.0521 67.0508 76.1098Z" fill="#D19582"/>
<path d="M44.3137 42.8245C46.7104 45.2353 43.9249 51.1387 40.9343 50.7711C40.7716 53.0249 40.864 55.2899 41.21 57.5229C41.8534 63.3273 44.6248 68.3823 49.8919 71.1891C55.159 73.9959 62.3492 75.0069 68.0051 72.6879C70.1272 71.8623 72.0587 70.6127 73.6815 69.0154C75.3043 67.4182 76.5844 65.5067 77.4435 63.398C79.4089 58.449 79.4301 52.2134 79.1615 46.9109C78.1788 27.2847 62.1936 27.5746 62.1936 27.5746C62.1936 27.5746 50.203 28.1048 44.3137 42.8245Z" fill="#E5B5A3"/>
<path d="M54.9612 83.1019L54.2542 91.0062C54.2542 91.0062 54.537 94.9512 60.9353 95.7077C67.3336 96.4641 68.0759 89.783 68.0759 89.783L67.0366 76.1098C65.6203 78.0504 63.8149 79.6745 61.7358 80.8784C59.6566 82.0824 57.3494 82.8396 54.9612 83.1019Z" fill="#E5B5A3"/>
<path d="M51.2635 56.6886C51.8062 56.6886 52.2462 55.8086 52.2462 54.7231C52.2462 53.6377 51.8062 52.7577 51.2635 52.7577C50.7207 52.7577 50.2807 53.6377 50.2807 54.7231C50.2807 55.8086 50.7207 56.6886 51.2635 56.6886Z" fill="#373C44"/>
<path d="M70.4162 55.0555C70.4162 56.1372 69.9778 57.0209 69.4334 57.0209C68.8891 57.0209 68.4507 56.1372 68.4507 55.0555C68.4507 53.9738 68.8961 53.09 69.4193 53.09C69.9425 53.09 70.4162 53.9738 70.4162 55.0555Z" fill="#373C44"/>
<path d="M60.2281 56.0382C59.8322 56.2857 59.4504 56.526 59.0899 56.7452C58.7293 56.9644 58.3829 57.3037 58.3404 57.537C58.3404 57.636 58.3829 57.7491 58.5455 57.8905C58.6814 58.0243 58.8458 58.1258 59.0262 58.1875C59.2305 58.2354 59.4423 58.2413 59.6489 58.2048C59.8556 58.1684 60.0526 58.0903 60.2281 57.9754C60.0882 58.184 59.8953 58.3516 59.6691 58.461C59.443 58.5703 59.1918 58.6175 58.9414 58.5975C58.6826 58.5529 58.4394 58.4434 58.2344 58.2794C58.1058 58.1916 58.0011 58.0734 57.9295 57.9352C57.858 57.797 57.8218 57.6432 57.8243 57.4875C57.8782 57.2023 58.0404 56.949 58.2768 56.7806C58.4664 56.6282 58.6757 56.5022 58.899 56.4058C59.3184 56.21 59.7677 56.0858 60.2281 56.0382Z" fill="#373C44"/>
<path d="M57.485 60.6407C57.9117 60.9144 58.3612 61.1509 58.8283 61.3477C59.2755 61.5436 59.7547 61.6563 60.2423 61.68C60.7167 61.7128 61.1916 61.6227 61.621 61.4184C62.082 61.2064 62.5162 60.9406 62.9148 60.6266C62.772 60.85 62.6162 61.0648 62.4482 61.2699C62.2614 61.4682 62.0499 61.6417 61.8189 61.786C61.3454 62.0946 60.7854 62.2432 60.2211 62.2102C59.6759 62.173 59.1463 62.0124 58.6723 61.7405C58.1984 61.4686 57.7924 61.0925 57.485 60.6407Z" fill="#373C44"/>
<path d="M50.2876 63.3698C51.4277 63.3698 52.352 62.4455 52.352 61.3053C52.352 60.1652 51.4277 59.2409 50.2876 59.2409C49.1474 59.2409 48.2232 60.1652 48.2232 61.3053C48.2232 62.4455 49.1474 63.3698 50.2876 63.3698Z" fill="#CE8282"/>
<path d="M69.433 63.3698C70.5732 63.3698 71.4975 62.4455 71.4975 61.3053C71.4975 60.1652 70.5732 59.2409 69.433 59.2409C68.2929 59.2409 67.3686 60.1652 67.3686 61.3053C67.3686 62.4455 68.2929 63.3698 69.433 63.3698Z" fill="#CE8282"/>
<path d="M76.3618 46.9533C75.8245 45.3909 75.6195 43.7294 75.1528 42.1387C74.7767 40.5093 73.8379 39.0648 72.5016 38.0593C71.0421 37.2235 69.3292 36.9447 67.6799 37.2746C63.2753 37.8967 59.4788 40.6187 55.2792 42.1034C50.6061 43.7394 45.529 43.8188 40.8071 42.3296C39.1494 41.8518 37.6022 41.0517 36.254 39.9753C34.9272 38.8222 33.9521 37.3185 33.4407 35.6366C32.9292 33.9547 32.9021 32.1628 33.3624 30.4662C33.5058 29.847 33.8136 29.278 34.2532 28.8189C34.4762 28.5933 34.7607 28.4381 35.0711 28.3728C35.3816 28.3074 35.7044 28.3347 35.9995 28.4513C36.9115 28.8967 36.961 30.0774 37.1165 30.947C37.3286 32.1065 37.668 33.7325 38.474 34.6092C39.0961 33.5841 38.7426 31.9156 38.8699 30.742C38.8958 30.0642 39.0581 29.3987 39.3472 28.7853C39.6364 28.1718 40.0463 27.6229 40.5525 27.1716C40.7874 26.9678 41.0901 26.8594 41.4009 26.8676C42.1998 26.9666 42.2917 28.0624 42.2564 28.8613C42.1937 30.2864 42.4173 31.7096 42.9139 33.0468C42.8361 30.5935 42.822 27.9352 44.2784 25.9768C44.4192 25.7292 44.6259 25.5254 44.8755 25.3881C45.1251 25.2508 45.4078 25.1854 45.6924 25.1991C46.3145 25.3334 46.5903 26.0899 46.5903 26.7262C46.5024 27.3626 46.5482 28.0103 46.7246 28.628C46.9067 28.9517 47.1748 29.2188 47.4992 29.3997C47.8236 29.5806 48.1917 29.6683 48.5628 29.6532C49.2949 29.6143 50.0137 29.4418 50.6838 29.1441C55.9112 27.1389 61.3774 25.8222 66.9446 25.2274C69.0656 25.0365 71.3421 25.0082 73.3076 25.9344C75.0339 26.8009 76.4366 28.1986 77.3092 29.9218C78.1753 31.6352 78.7828 33.4673 79.112 35.3586C79.8415 38.9301 80.15 42.5748 80.0311 46.2181C80.0311 47.1796 80.2998 50.0641 78.8009 49.9934C77.6061 49.9227 76.687 47.929 76.3618 46.9533Z" fill="#685A56"/>
<path d="M91.4844 108.186H28.5477L29.1345 107.02H90.9966L91.4844 108.186Z" fill="#5B66B2"/>
<path d="M93.803 115.376H25.5851L25.9881 114.217H93.499L93.803 115.376Z" fill="#5B66B2"/>
<path d="M66.5065 50.8135C66.8708 50.2318 67.3611 49.7393 67.9411 49.3722C68.521 49.0051 69.176 48.7729 69.8576 48.6925C70.5609 48.6084 71.2734 48.7312 71.9079 49.046C72.5259 49.3376 73.0644 49.7742 73.4774 50.3186C73.1593 50.1842 72.8906 50.0146 72.5937 49.8873C72.308 49.7561 72.0125 49.6474 71.7099 49.5621C71.1349 49.3795 70.5275 49.3216 69.9283 49.3924C68.6885 49.5785 67.5134 50.0665 66.5065 50.8135Z" fill="#373C44"/>
<path d="M54.4165 50.3256C53.9876 49.8107 53.4452 49.4023 52.8319 49.1324C52.2185 48.8625 51.5509 48.7386 50.8815 48.7703C50.2103 48.8069 49.5458 48.9232 48.902 49.1167L47.9192 49.449C47.5869 49.5762 47.2617 49.7035 46.9082 49.8095C47.1769 49.5692 47.4668 49.3571 47.7566 49.1025C48.0465 48.848 48.3859 48.7349 48.7111 48.5652C49.3769 48.2522 50.0973 48.0721 50.8321 48.035C51.5998 47.9978 52.361 48.1924 53.0167 48.5935C53.6793 48.9804 54.1773 49.5966 54.4165 50.3256Z" fill="#373C44"/>
</svg>
