<svg width="597" height="377" viewBox="0 0 597 377" fill="none" xmlns="http://www.w3.org/2000/svg">
<rect width="597" height="377" fill="#E5E5E5"/>
<g clip-path="url(#clip0_0_1)">
<rect width="1440" height="4699" transform="translate(-668 -2949)" fill="white"/>
<rect x="-700.5" y="-94.5" width="1504" height="539" fill="#FBFAFE" stroke="#F0EBFA"/>
<rect x="0.5" y="0.5" width="471.71" height="329.782" rx="3.5" fill="white" stroke="#E1E5EA"/>
<line x1="25.4052" y1="92.4348" x2="447.304" y2="92.4348" stroke="#E1E5EA" stroke-width="0.5" stroke-linecap="round" stroke-dasharray="2 2"/>
<line x1="25.4052" y1="139.26" x2="447.304" y2="139.26" stroke="#E1E5EA" stroke-width="0.5" stroke-linecap="round" stroke-dasharray="2 2"/>
<line x1="25.4052" y1="186.093" x2="447.304" y2="186.093" stroke="#E1E5EA" stroke-width="0.5" stroke-linecap="round" stroke-dasharray="2 2"/>
<line x1="25.4052" y1="232.92" x2="447.304" y2="232.92" stroke="#E1E5EA" stroke-width="0.5" stroke-linecap="round" stroke-dasharray="2 2"/>
<line x1="25.1552" y1="279.752" x2="447.554" y2="279.752" stroke="#E1E5EA" stroke-width="0.5"/>
<path d="M77 129.858C77 127.649 78.7909 125.858 81 125.858H98.1553C100.364 125.858 102.155 127.649 102.155 129.858V280.005H77V129.858Z" fill="#508EF5"/>
<path d="M144 76.1982C144 73.9891 145.791 72.1982 148 72.1982H165.155C167.364 72.1982 169.155 73.9891 169.155 76.1982V280.004H144V76.1982Z" fill="#EE726F"/>
<path d="M211 207.904C211 205.695 212.791 203.904 215 203.904H232.155C234.364 203.904 236.155 205.695 236.155 207.904V280.002H211V207.904Z" fill="#F8CD5F"/>
<path d="M278 236.194C278 233.985 279.791 232.194 282 232.194H299.155C301.364 232.194 303.155 233.985 303.155 236.194V280H278V236.194Z" fill="#F4AF59"/>
<path d="M346 255.707C346 253.498 347.791 251.707 350 251.707H367.155C369.364 251.707 371.155 253.498 371.155 255.707V280H346V255.707Z" fill="#EA8D6A"/>
<path d="M30.153 73.4937V72.5519L34.3078 65.9781H34.991V67.4369H34.5294L31.3902 72.4042V72.4781H36.9854V73.4937H30.153ZM34.6033 75.4326V73.2075V72.7689V65.9781H35.6927V75.4326H34.6033ZM41.7992 75.5619C41.1036 75.5619 40.5112 75.3726 40.0219 74.9941C39.5325 74.6124 39.1586 74.06 38.9 73.3367C38.6415 72.6104 38.5123 71.7333 38.5123 70.7053C38.5123 69.6836 38.6415 68.811 38.9 68.0878C39.1616 67.3615 39.5371 66.8075 40.0265 66.4259C40.5189 66.0412 41.1098 65.8488 41.7992 65.8488C42.4886 65.8488 43.078 66.0412 43.5673 66.4259C44.0597 66.8075 44.4352 67.3615 44.6937 68.0878C44.9553 68.811 45.0861 69.6836 45.0861 70.7053C45.0861 71.7333 44.9569 72.6104 44.6983 73.3367C44.4398 74.06 44.0659 74.6124 43.5765 74.9941C43.0872 75.3726 42.4947 75.5619 41.7992 75.5619ZM41.7992 74.5463C42.4886 74.5463 43.0241 74.2139 43.4057 73.5491C43.7874 72.8843 43.9782 71.9364 43.9782 70.7053C43.9782 69.8867 43.8905 69.1896 43.715 68.6141C43.5427 68.0386 43.2934 67.6 42.9672 67.2984C42.644 66.9968 42.2547 66.846 41.7992 66.846C41.116 66.846 40.582 67.183 40.1973 67.857C39.8126 68.5279 39.6202 69.4774 39.6202 70.7053C39.6202 71.524 39.7064 72.2195 39.8787 72.792C40.0511 73.3644 40.2988 73.7999 40.622 74.0985C40.9482 74.397 41.3406 74.5463 41.7992 74.5463ZM49.9242 75.5619C49.2286 75.5619 48.6362 75.3726 48.1469 74.9941C47.6575 74.6124 47.2836 74.06 47.025 73.3367C46.7665 72.6104 46.6373 71.7333 46.6373 70.7053C46.6373 69.6836 46.7665 68.811 47.025 68.0878C47.2866 67.3615 47.6621 66.8075 48.1515 66.4259C48.6439 66.0412 49.2348 65.8488 49.9242 65.8488C50.6136 65.8488 51.203 66.0412 51.6923 66.4259C52.1847 66.8075 52.5602 67.3615 52.8187 68.0878C53.0803 68.811 53.2111 69.6836 53.2111 70.7053C53.2111 71.7333 53.0819 72.6104 52.8233 73.3367C52.5648 74.06 52.1909 74.6124 51.7015 74.9941C51.2122 75.3726 50.6197 75.5619 49.9242 75.5619ZM49.9242 74.5463C50.6136 74.5463 51.1491 74.2139 51.5307 73.5491C51.9124 72.8843 52.1032 71.9364 52.1032 70.7053C52.1032 69.8867 52.0155 69.1896 51.84 68.6141C51.6677 68.0386 51.4184 67.6 51.0922 67.2984C50.769 66.9968 50.3797 66.846 49.9242 66.846C49.241 66.846 48.707 67.183 48.3223 67.857C47.9376 68.5279 47.7452 69.4774 47.7452 70.7053C47.7452 71.524 47.8314 72.2195 48.0037 72.792C48.1761 73.3644 48.4238 73.7999 48.747 74.0985C49.0732 74.397 49.4656 74.5463 49.9242 74.5463Z" fill="#4E5A65"/>
<path d="M33.5692 120.44C32.9598 120.44 32.4166 120.335 31.9396 120.126C31.4656 119.916 31.0886 119.626 30.8085 119.253C30.5315 118.878 30.3807 118.442 30.3561 117.947H31.5195C31.5441 118.251 31.6487 118.514 31.8334 118.736C32.018 118.955 32.2596 119.124 32.5582 119.244C32.8567 119.364 33.1875 119.424 33.5507 119.424C33.957 119.424 34.317 119.353 34.631 119.212C34.9449 119.07 35.1911 118.873 35.3696 118.621C35.5481 118.368 35.6374 118.076 35.6374 117.744C35.6374 117.396 35.5512 117.09 35.3788 116.825C35.2065 116.557 34.9541 116.348 34.6217 116.197C34.2893 116.046 33.8831 115.971 33.403 115.971H32.6459V114.955H33.403C33.7784 114.955 34.1078 114.887 34.3909 114.752C34.6771 114.617 34.9003 114.426 35.0603 114.18C35.2234 113.933 35.305 113.644 35.305 113.312C35.305 112.992 35.2342 112.713 35.0926 112.476C34.951 112.239 34.751 112.055 34.4925 111.922C34.237 111.79 33.9354 111.724 33.5876 111.724C33.2614 111.724 32.9536 111.784 32.6643 111.904C32.3781 112.021 32.1442 112.191 31.9626 112.416C31.7811 112.638 31.6826 112.905 31.6672 113.219H30.5592C30.5777 112.724 30.727 112.29 31.007 111.918C31.2871 111.542 31.6533 111.25 32.1057 111.04C32.5612 110.831 33.0614 110.726 33.6061 110.726C34.1909 110.726 34.6925 110.845 35.1111 111.082C35.5296 111.316 35.8512 111.625 36.0759 112.01C36.3006 112.395 36.4129 112.81 36.4129 113.256C36.4129 113.789 36.2729 114.243 35.9928 114.618C35.7158 114.994 35.3388 115.254 34.8618 115.398V115.472C35.4588 115.571 35.9251 115.825 36.2606 116.234C36.596 116.64 36.7638 117.143 36.7638 117.744C36.7638 118.258 36.6237 118.719 36.3437 119.128C36.0667 119.535 35.6881 119.855 35.208 120.089C34.7279 120.323 34.1816 120.44 33.5692 120.44ZM41.7357 120.44C41.0402 120.44 40.4477 120.25 39.9584 119.872C39.469 119.49 39.0951 118.938 38.8366 118.214C38.578 117.488 38.4488 116.611 38.4488 115.583C38.4488 114.561 38.578 113.689 38.8366 112.965C39.0982 112.239 39.4736 111.685 39.963 111.304C40.4554 110.919 41.0463 110.726 41.7357 110.726C42.4251 110.726 43.0145 110.919 43.5038 111.304C43.9963 111.685 44.3717 112.239 44.6302 112.965C44.8918 113.689 45.0226 114.561 45.0226 115.583C45.0226 116.611 44.8934 117.488 44.6349 118.214C44.3763 118.938 44.0024 119.49 43.5131 119.872C43.0237 120.25 42.4313 120.44 41.7357 120.44ZM41.7357 119.424C42.4251 119.424 42.9606 119.092 43.3423 118.427C43.7239 117.762 43.9147 116.814 43.9147 115.583C43.9147 114.764 43.827 114.067 43.6516 113.492C43.4792 112.916 43.2299 112.478 42.9037 112.176C42.5805 111.874 42.1912 111.724 41.7357 111.724C41.0525 111.724 40.5185 112.061 40.1338 112.735C39.7491 113.406 39.5567 114.355 39.5567 115.583C39.5567 116.402 39.6429 117.097 39.8153 117.67C39.9876 118.242 40.2354 118.678 40.5585 118.976C40.8847 119.275 41.2771 119.424 41.7357 119.424ZM49.8607 120.44C49.1652 120.44 48.5727 120.25 48.0834 119.872C47.594 119.49 47.2201 118.938 46.9616 118.214C46.703 117.488 46.5738 116.611 46.5738 115.583C46.5738 114.561 46.703 113.689 46.9616 112.965C47.2232 112.239 47.5986 111.685 48.088 111.304C48.5804 110.919 49.1713 110.726 49.8607 110.726C50.5501 110.726 51.1395 110.919 51.6288 111.304C52.1213 111.685 52.4967 112.239 52.7552 112.965C53.0168 113.689 53.1476 114.561 53.1476 115.583C53.1476 116.611 53.0184 117.488 52.7599 118.214C52.5013 118.938 52.1274 119.49 51.6381 119.872C51.1487 120.25 50.5563 120.44 49.8607 120.44ZM49.8607 119.424C50.5501 119.424 51.0856 119.092 51.4673 118.427C51.8489 117.762 52.0397 116.814 52.0397 115.583C52.0397 114.764 51.952 114.067 51.7766 113.492C51.6042 112.916 51.3549 112.478 51.0287 112.176C50.7055 111.874 50.3162 111.724 49.8607 111.724C49.1775 111.724 48.6435 112.061 48.2588 112.735C47.8741 113.406 47.6817 114.355 47.6817 115.583C47.6817 116.402 47.7679 117.097 47.9403 117.67C48.1126 118.242 48.3604 118.678 48.6835 118.976C49.0097 119.275 49.4021 119.424 49.8607 119.424Z" fill="#4E5A65"/>
<path d="M30.3746 167.143V166.312L33.4953 162.896C33.8615 162.496 34.1632 162.148 34.4001 161.853C34.6371 161.554 34.8125 161.274 34.9264 161.013C35.0434 160.748 35.1018 160.471 35.1018 160.182C35.1018 159.849 35.0218 159.562 34.8618 159.318C34.7048 159.075 34.4894 158.888 34.2155 158.755C33.9416 158.623 33.6338 158.557 33.2922 158.557C32.929 158.557 32.612 158.632 32.3412 158.783C32.0734 158.931 31.8657 159.138 31.718 159.406C31.5733 159.674 31.501 159.988 31.501 160.348H30.4115C30.4115 159.794 30.5392 159.308 30.7947 158.889C31.0501 158.47 31.3979 158.144 31.838 157.91C32.2812 157.676 32.7782 157.56 33.3291 157.56C33.8831 157.56 34.374 157.676 34.8018 157.91C35.2296 158.144 35.565 158.46 35.8082 158.857C36.0513 159.254 36.1729 159.695 36.1729 160.182C36.1729 160.529 36.1098 160.87 35.9836 161.202C35.8605 161.531 35.645 161.899 35.3373 162.305C35.0326 162.708 34.6094 163.201 34.0677 163.783L31.9442 166.054V166.128H36.3391V167.143H30.3746ZM41.3295 167.273C40.6339 167.273 40.0415 167.083 39.5521 166.705C39.0628 166.323 38.6888 165.771 38.4303 165.047C38.1718 164.321 38.0425 163.444 38.0425 162.416C38.0425 161.394 38.1718 160.522 38.4303 159.798C38.6919 159.072 39.0674 158.518 39.5567 158.137C40.0492 157.752 40.6401 157.56 41.3295 157.56C42.0189 157.56 42.6082 157.752 43.0976 158.137C43.59 158.518 43.9655 159.072 44.224 159.798C44.4856 160.522 44.6164 161.394 44.6164 162.416C44.6164 163.444 44.4871 164.321 44.2286 165.047C43.9701 165.771 43.5962 166.323 43.1068 166.705C42.6175 167.083 42.025 167.273 41.3295 167.273ZM41.3295 166.257C42.0189 166.257 42.5544 165.925 42.936 165.26C43.3176 164.595 43.5084 163.647 43.5084 162.416C43.5084 161.597 43.4207 160.9 43.2453 160.325C43.073 159.749 42.8237 159.311 42.4974 159.009C42.1743 158.707 41.785 158.557 41.3295 158.557C40.6462 158.557 40.1123 158.894 39.7276 159.568C39.3428 160.239 39.1505 161.188 39.1505 162.416C39.1505 163.235 39.2367 163.93 39.409 164.503C39.5814 165.075 39.8291 165.511 40.1523 165.809C40.4785 166.108 40.8709 166.257 41.3295 166.257ZM49.4545 167.273C48.7589 167.273 48.1665 167.083 47.6771 166.705C47.1878 166.323 46.8138 165.771 46.5553 165.047C46.2968 164.321 46.1675 163.444 46.1675 162.416C46.1675 161.394 46.2968 160.522 46.5553 159.798C46.8169 159.072 47.1924 158.518 47.6817 158.137C48.1742 157.752 48.7651 157.56 49.4545 157.56C50.1439 157.56 50.7332 157.752 51.2226 158.137C51.715 158.518 52.0905 159.072 52.349 159.798C52.6106 160.522 52.7414 161.394 52.7414 162.416C52.7414 163.444 52.6121 164.321 52.3536 165.047C52.0951 165.771 51.7212 166.323 51.2318 166.705C50.7425 167.083 50.15 167.273 49.4545 167.273ZM49.4545 166.257C50.1439 166.257 50.6794 165.925 51.061 165.26C51.4426 164.595 51.6334 163.647 51.6334 162.416C51.6334 161.597 51.5457 160.9 51.3703 160.325C51.198 159.749 50.9487 159.311 50.6224 159.009C50.2993 158.707 49.91 158.557 49.4545 158.557C48.7712 158.557 48.2373 158.894 47.8526 159.568C47.4678 160.239 47.2755 161.188 47.2755 162.416C47.2755 163.235 47.3617 163.93 47.534 164.503C47.7064 165.075 47.9541 165.511 48.2773 165.809C48.6035 166.108 48.9959 166.257 49.4545 166.257Z" fill="#4E5A65"/>
<path d="M33.6984 204.518V213.973H32.5535V205.719H32.4981L30.1899 207.251V206.088L32.5535 204.518H33.6984ZM39.5013 214.102C38.8058 214.102 38.2133 213.913 37.724 213.534C37.2347 213.153 36.8607 212.6 36.6022 211.877C36.3437 211.151 36.2144 210.274 36.2144 209.246C36.2144 208.224 36.3437 207.351 36.6022 206.628C36.8638 205.902 37.2393 205.348 37.7286 204.966C38.221 204.581 38.8119 204.389 39.5013 204.389C40.1907 204.389 40.7801 204.581 41.2695 204.966C41.7619 205.348 42.1374 205.902 42.3959 206.628C42.6575 207.351 42.7883 208.224 42.7883 209.246C42.7883 210.274 42.659 211.151 42.4005 211.877C42.142 212.6 41.768 213.153 41.2787 213.534C40.7893 213.913 40.1969 214.102 39.5013 214.102ZM39.5013 213.087C40.1907 213.087 40.7262 212.754 41.1079 212.089C41.4895 211.425 41.6803 210.477 41.6803 209.246C41.6803 208.427 41.5926 207.73 41.4172 207.154C41.2448 206.579 40.9955 206.14 40.6693 205.839C40.3462 205.537 39.9568 205.386 39.5013 205.386C38.8181 205.386 38.2841 205.723 37.8994 206.397C37.5147 207.068 37.3224 208.018 37.3224 209.246C37.3224 210.064 37.4085 210.76 37.5809 211.332C37.7532 211.905 38.001 212.34 38.3241 212.639C38.6504 212.937 39.0428 213.087 39.5013 213.087ZM47.6263 214.102C46.9308 214.102 46.3383 213.913 45.849 213.534C45.3597 213.153 44.9857 212.6 44.7272 211.877C44.4687 211.151 44.3394 210.274 44.3394 209.246C44.3394 208.224 44.4687 207.351 44.7272 206.628C44.9888 205.902 45.3643 205.348 45.8536 204.966C46.346 204.581 46.9369 204.389 47.6263 204.389C48.3157 204.389 48.9051 204.581 49.3945 204.966C49.8869 205.348 50.2624 205.902 50.5209 206.628C50.7825 207.351 50.9133 208.224 50.9133 209.246C50.9133 210.274 50.784 211.151 50.5255 211.877C50.267 212.6 49.893 213.153 49.4037 213.534C48.9143 213.913 48.3219 214.102 47.6263 214.102ZM47.6263 213.087C48.3157 213.087 48.8512 212.754 49.2329 212.089C49.6145 211.425 49.8053 210.477 49.8053 209.246C49.8053 208.427 49.7176 207.73 49.5422 207.154C49.3698 206.579 49.1205 206.14 48.7943 205.839C48.4712 205.537 48.0818 205.386 47.6263 205.386C46.9431 205.386 46.4091 205.723 46.0244 206.397C45.6397 207.068 45.4474 208.018 45.4474 209.246C45.4474 210.064 45.5335 210.76 45.7059 211.332C45.8782 211.905 46.126 212.34 46.4491 212.639C46.7754 212.937 47.1678 213.087 47.6263 213.087Z" fill="#4E5A65"/>
<path d="M33.4584 260.932C32.7628 260.932 32.1704 260.742 31.681 260.364C31.1917 259.982 30.8177 259.43 30.5592 258.707C30.3007 257.98 30.1714 257.103 30.1714 256.075C30.1714 255.053 30.3007 254.181 30.5592 253.458C30.8208 252.731 31.1963 252.177 31.6856 251.796C32.1781 251.411 32.769 251.219 33.4584 251.219C34.1478 251.219 34.7371 251.411 35.2265 251.796C35.7189 252.177 36.0944 252.731 36.3529 253.458C36.6145 254.181 36.7453 255.053 36.7453 256.075C36.7453 257.103 36.616 257.98 36.3575 258.707C36.099 259.43 35.7251 259.982 35.2357 260.364C34.7464 260.742 34.1539 260.932 33.4584 260.932ZM33.4584 259.916C34.1478 259.916 34.6833 259.584 35.0649 258.919C35.4465 258.254 35.6374 257.306 35.6374 256.075C35.6374 255.257 35.5496 254.559 35.3742 253.984C35.2019 253.408 34.9526 252.97 34.6263 252.668C34.3032 252.367 33.9139 252.216 33.4584 252.216C32.7751 252.216 32.2412 252.553 31.8565 253.227C31.4718 253.898 31.2794 254.847 31.2794 256.075C31.2794 256.894 31.3656 257.589 31.5379 258.162C31.7103 258.734 31.958 259.17 32.2812 259.468C32.6074 259.767 32.9998 259.916 33.4584 259.916Z" fill="#4E5A65"/>
<path d="M82.7642 297.156H83.9091V303.914C83.9091 304.518 83.7983 305.03 83.5767 305.452C83.3551 305.873 83.0427 306.193 82.6396 306.412C82.2364 306.63 81.7609 306.74 81.2131 306.74C80.696 306.74 80.2359 306.646 79.8327 306.458C79.4296 306.267 79.1126 305.996 78.8817 305.646C78.6509 305.295 78.5355 304.878 78.5355 304.394H79.6619C79.6619 304.662 79.7281 304.896 79.8604 305.096C79.9959 305.293 80.1805 305.447 80.4144 305.558C80.6483 305.669 80.9145 305.724 81.2131 305.724C81.5424 305.724 81.8224 305.655 82.0533 305.516C82.2841 305.378 82.4595 305.175 82.5795 304.907C82.7027 304.636 82.7642 304.305 82.7642 303.914V297.156ZM88.1424 306.777C87.6931 306.777 87.2853 306.692 86.919 306.523C86.5528 306.35 86.262 306.103 86.0465 305.779C85.8311 305.453 85.7234 305.059 85.7234 304.598C85.7234 304.191 85.8034 303.862 85.9634 303.61C86.1235 303.354 86.3374 303.154 86.6051 303.009C86.8729 302.865 87.1683 302.757 87.4915 302.686C87.8177 302.612 88.1455 302.554 88.4748 302.511C88.9057 302.456 89.255 302.414 89.5227 302.386C89.7936 302.355 89.9905 302.305 90.1136 302.234C90.2398 302.163 90.3029 302.04 90.3029 301.865V301.828C90.3029 301.372 90.1783 301.018 89.929 300.766C89.6828 300.514 89.3088 300.387 88.8072 300.387C88.2871 300.387 87.8793 300.501 87.5838 300.729C87.2884 300.957 87.0806 301.2 86.9606 301.458L85.9265 301.089C86.1112 300.658 86.3574 300.323 86.6651 300.083C86.976 299.84 87.3145 299.67 87.6808 299.575C88.0501 299.476 88.4132 299.427 88.7702 299.427C88.998 299.427 89.2596 299.455 89.555 299.51C89.8536 299.563 90.1413 299.672 90.4183 299.838C90.6984 300.004 90.9308 300.255 91.1154 300.59C91.3001 300.926 91.3924 301.375 91.3924 301.938V306.61H90.3029V305.65H90.2475C90.1737 305.804 90.0505 305.969 89.8782 306.144C89.7058 306.32 89.4766 306.469 89.1903 306.592C88.9041 306.715 88.5548 306.777 88.1424 306.777ZM88.3086 305.798C88.7395 305.798 89.1026 305.713 89.3981 305.544C89.6966 305.375 89.9213 305.156 90.0721 304.888C90.226 304.621 90.3029 304.339 90.3029 304.044V303.046C90.2567 303.102 90.1552 303.153 89.9982 303.199C89.8443 303.242 89.6658 303.28 89.4627 303.314C89.2627 303.345 89.0672 303.373 88.8764 303.397C88.6887 303.419 88.5363 303.437 88.4194 303.453C88.1362 303.49 87.8716 303.55 87.6254 303.633C87.3822 303.713 87.1853 303.834 87.0344 303.997C86.8867 304.157 86.8129 304.376 86.8129 304.653C86.8129 305.032 86.9529 305.318 87.233 305.512C87.5161 305.702 87.8746 305.798 88.3086 305.798ZM94.4704 302.345V306.61H93.3809V299.519H94.4335V300.627H94.5258C94.692 300.267 94.9444 299.978 95.2829 299.759C95.6215 299.538 96.0585 299.427 96.594 299.427C97.0741 299.427 97.4942 299.526 97.8543 299.723C98.2144 299.916 98.4945 300.212 98.6945 300.609C98.8946 301.003 98.9946 301.501 98.9946 302.105V306.61H97.9051V302.179C97.9051 301.621 97.7604 301.188 97.4711 300.877C97.1818 300.563 96.7848 300.406 96.2801 300.406C95.9323 300.406 95.6215 300.481 95.3476 300.632C95.0767 300.783 94.8628 301.003 94.7059 301.292C94.5489 301.581 94.4704 301.932 94.4704 302.345Z" fill="#4E5A65"/>
<path d="M146.145 306.61V297.156H151.814V298.171H147.29V301.366H151.389V302.382H147.29V306.61H146.145ZM156.08 306.758C155.396 306.758 154.807 306.607 154.311 306.306C153.819 306.001 153.439 305.576 153.171 305.032C152.906 304.484 152.774 303.847 152.774 303.12C152.774 302.394 152.906 301.754 153.171 301.2C153.439 300.643 153.811 300.209 154.288 299.898C154.768 299.584 155.329 299.427 155.969 299.427C156.338 299.427 156.703 299.489 157.063 299.612C157.423 299.735 157.751 299.935 158.046 300.212C158.342 300.486 158.577 300.849 158.752 301.301C158.928 301.754 159.016 302.311 159.016 302.973V303.434H153.55V302.492H157.908C157.908 302.092 157.828 301.735 157.668 301.421C157.511 301.108 157.286 300.86 156.994 300.678C156.704 300.497 156.363 300.406 155.969 300.406C155.535 300.406 155.159 300.514 154.842 300.729C154.528 300.941 154.287 301.218 154.118 301.56C153.948 301.902 153.864 302.268 153.864 302.659V303.286C153.864 303.822 153.956 304.276 154.141 304.648C154.328 305.018 154.588 305.299 154.921 305.493C155.253 305.684 155.639 305.779 156.08 305.779C156.366 305.779 156.624 305.739 156.855 305.659C157.089 305.576 157.291 305.453 157.46 305.29C157.629 305.124 157.76 304.918 157.852 304.671L158.905 304.967C158.794 305.324 158.608 305.638 158.346 305.909C158.085 306.176 157.761 306.386 157.377 306.536C156.992 306.684 156.56 306.758 156.08 306.758ZM160.821 306.61V297.156H161.91V300.646H162.002C162.083 300.523 162.193 300.366 162.335 300.175C162.48 299.981 162.686 299.809 162.953 299.658C163.224 299.504 163.591 299.427 164.052 299.427C164.649 299.427 165.176 299.576 165.631 299.875C166.087 300.173 166.442 300.597 166.697 301.144C166.953 301.692 167.081 302.339 167.081 303.083C167.081 303.834 166.953 304.485 166.697 305.036C166.442 305.584 166.088 306.009 165.636 306.31C165.183 306.609 164.662 306.758 164.071 306.758C163.615 306.758 163.25 306.683 162.977 306.532C162.703 306.378 162.492 306.204 162.344 306.01C162.196 305.813 162.083 305.65 162.002 305.521H161.873V306.61H160.821ZM161.892 303.065C161.892 303.6 161.97 304.073 162.127 304.482C162.284 304.888 162.513 305.207 162.815 305.438C163.117 305.666 163.486 305.779 163.923 305.779C164.378 305.779 164.759 305.659 165.063 305.419C165.371 305.176 165.602 304.85 165.756 304.441C165.913 304.028 165.991 303.57 165.991 303.065C165.991 302.566 165.914 302.117 165.76 301.717C165.609 301.314 165.38 300.995 165.072 300.761C164.768 300.524 164.385 300.406 163.923 300.406C163.48 300.406 163.107 300.518 162.806 300.743C162.504 300.964 162.276 301.275 162.123 301.675C161.969 302.072 161.892 302.536 161.892 303.065Z" fill="#4E5A65"/>
<path d="M212.145 297.156H213.511L216.724 305.004H216.835L220.048 297.156H221.415V306.61H220.344V299.427H220.251L217.297 306.61H216.263L213.308 299.427H213.216V306.61H212.145V297.156ZM225.649 306.777C225.2 306.777 224.792 306.692 224.426 306.523C224.06 306.35 223.769 306.103 223.553 305.779C223.338 305.453 223.23 305.059 223.23 304.598C223.23 304.191 223.31 303.862 223.47 303.61C223.63 303.354 223.844 303.154 224.112 303.009C224.38 302.865 224.675 302.757 224.998 302.686C225.325 302.612 225.652 302.554 225.982 302.511C226.412 302.456 226.762 302.414 227.03 302.386C227.3 302.355 227.497 302.305 227.62 302.234C227.747 302.163 227.81 302.04 227.81 301.865V301.828C227.81 301.372 227.685 301.018 227.436 300.766C227.19 300.514 226.816 300.387 226.314 300.387C225.794 300.387 225.386 300.501 225.091 300.729C224.795 300.957 224.587 301.2 224.467 301.458L223.433 301.089C223.618 300.658 223.864 300.323 224.172 300.083C224.483 299.84 224.821 299.67 225.188 299.575C225.557 299.476 225.92 299.427 226.277 299.427C226.505 299.427 226.766 299.455 227.062 299.51C227.36 299.563 227.648 299.672 227.925 299.838C228.205 300.004 228.438 300.255 228.622 300.59C228.807 300.926 228.899 301.375 228.899 301.938V306.61H227.81V305.65H227.754C227.68 305.804 227.557 305.969 227.385 306.144C227.213 306.32 226.983 306.469 226.697 306.592C226.411 306.715 226.062 306.777 225.649 306.777ZM225.815 305.798C226.246 305.798 226.609 305.713 226.905 305.544C227.203 305.375 227.428 305.156 227.579 304.888C227.733 304.621 227.81 304.339 227.81 304.044V303.046C227.764 303.102 227.662 303.153 227.505 303.199C227.351 303.242 227.173 303.28 226.97 303.314C226.77 303.345 226.574 303.373 226.383 303.397C226.196 303.419 226.043 303.437 225.926 303.453C225.643 303.49 225.378 303.55 225.132 303.633C224.889 303.713 224.692 303.834 224.541 303.997C224.394 304.157 224.32 304.376 224.32 304.653C224.32 305.032 224.46 305.318 224.74 305.512C225.023 305.702 225.381 305.798 225.815 305.798ZM230.888 306.61V299.519H231.94V300.59H232.014C232.143 300.24 232.377 299.955 232.716 299.736C233.054 299.518 233.436 299.409 233.861 299.409C233.941 299.409 234.041 299.41 234.161 299.413C234.281 299.416 234.372 299.421 234.433 299.427V300.535C234.396 300.526 234.312 300.512 234.179 300.494C234.05 300.472 233.913 300.461 233.768 300.461C233.424 300.461 233.116 300.534 232.845 300.678C232.577 300.82 232.365 301.017 232.208 301.269C232.054 301.518 231.977 301.803 231.977 302.123V306.61H230.888Z" fill="#4E5A65"/>
<path d="M280.533 306.61H279.332L282.804 297.156H283.986L287.457 306.61H286.257L283.432 298.652H283.358L280.533 306.61ZM280.976 302.917H285.814V303.933H280.976V302.917ZM288.782 309.269V299.519H289.835V300.646H289.964C290.044 300.523 290.155 300.366 290.297 300.175C290.441 299.981 290.647 299.809 290.915 299.658C291.186 299.504 291.552 299.427 292.014 299.427C292.611 299.427 293.137 299.576 293.593 299.875C294.048 300.173 294.404 300.597 294.659 301.144C294.915 301.692 295.042 302.339 295.042 303.083C295.042 303.834 294.915 304.485 294.659 305.036C294.404 305.584 294.05 306.009 293.597 306.31C293.145 306.609 292.623 306.758 292.032 306.758C291.577 306.758 291.212 306.683 290.938 306.532C290.664 306.378 290.453 306.204 290.306 306.01C290.158 305.813 290.044 305.65 289.964 305.521H289.872V309.269H288.782ZM289.853 303.065C289.853 303.6 289.932 304.073 290.089 304.482C290.246 304.888 290.475 305.207 290.777 305.438C291.078 305.666 291.448 305.779 291.885 305.779C292.34 305.779 292.72 305.659 293.025 305.419C293.333 305.176 293.563 304.85 293.717 304.441C293.874 304.028 293.953 303.57 293.953 303.065C293.953 302.566 293.876 302.117 293.722 301.717C293.571 301.314 293.342 300.995 293.034 300.761C292.729 300.524 292.346 300.406 291.885 300.406C291.441 300.406 291.069 300.518 290.767 300.743C290.466 300.964 290.238 301.275 290.084 301.675C289.93 302.072 289.853 302.536 289.853 303.065ZM296.704 306.61V299.519H297.757V300.59H297.831C297.96 300.24 298.194 299.955 298.532 299.736C298.871 299.518 299.252 299.409 299.677 299.409C299.757 299.409 299.857 299.41 299.977 299.413C300.097 299.416 300.188 299.421 300.25 299.427V300.535C300.213 300.526 300.128 300.512 299.996 300.494C299.866 300.472 299.73 300.461 299.585 300.461C299.24 300.461 298.932 300.534 298.662 300.678C298.394 300.82 298.181 301.017 298.025 301.269C297.871 301.518 297.794 301.803 297.794 302.123V306.61H296.704Z" fill="#4E5A65"/>
<path d="M346.145 297.156H347.511L350.724 305.004H350.835L354.048 297.156H355.415V306.61H354.344V299.427H354.251L351.297 306.61H350.263L347.308 299.427H347.216V306.61H346.145V297.156ZM359.649 306.777C359.2 306.777 358.792 306.692 358.426 306.523C358.06 306.35 357.769 306.103 357.553 305.779C357.338 305.453 357.23 305.059 357.23 304.598C357.23 304.191 357.31 303.862 357.47 303.61C357.63 303.354 357.844 303.154 358.112 303.009C358.38 302.865 358.675 302.757 358.998 302.686C359.325 302.612 359.652 302.554 359.982 302.511C360.412 302.456 360.762 302.414 361.03 302.386C361.3 302.355 361.497 302.305 361.62 302.234C361.747 302.163 361.81 302.04 361.81 301.865V301.828C361.81 301.372 361.685 301.018 361.436 300.766C361.19 300.514 360.816 300.387 360.314 300.387C359.794 300.387 359.386 300.501 359.091 300.729C358.795 300.957 358.587 301.2 358.467 301.458L357.433 301.089C357.618 300.658 357.864 300.323 358.172 300.083C358.483 299.84 358.821 299.67 359.188 299.575C359.557 299.476 359.92 299.427 360.277 299.427C360.505 299.427 360.766 299.455 361.062 299.51C361.36 299.563 361.648 299.672 361.925 299.838C362.205 300.004 362.438 300.255 362.622 300.59C362.807 300.926 362.899 301.375 362.899 301.938V306.61H361.81V305.65H361.754C361.68 305.804 361.557 305.969 361.385 306.144C361.213 306.32 360.983 306.469 360.697 306.592C360.411 306.715 360.062 306.777 359.649 306.777ZM359.815 305.798C360.246 305.798 360.609 305.713 360.905 305.544C361.203 305.375 361.428 305.156 361.579 304.888C361.733 304.621 361.81 304.339 361.81 304.044V303.046C361.764 303.102 361.662 303.153 361.505 303.199C361.351 303.242 361.173 303.28 360.97 303.314C360.77 303.345 360.574 303.373 360.383 303.397C360.196 303.419 360.043 303.437 359.926 303.453C359.643 303.49 359.378 303.55 359.132 303.633C358.889 303.713 358.692 303.834 358.541 303.997C358.394 304.157 358.32 304.376 358.32 304.653C358.32 305.032 358.46 305.318 358.74 305.512C359.023 305.702 359.381 305.798 359.815 305.798ZM365.336 309.269C365.151 309.269 364.986 309.254 364.842 309.223C364.697 309.196 364.597 309.168 364.542 309.14L364.819 308.18C365.083 308.248 365.317 308.272 365.52 308.254C365.723 308.235 365.903 308.145 366.06 307.981C366.22 307.821 366.367 307.561 366.499 307.201L366.702 306.647L364.08 299.519H365.262L367.219 305.17H367.293L369.25 299.519H370.432L367.422 307.644C367.287 308.011 367.119 308.314 366.919 308.554C366.719 308.797 366.487 308.977 366.222 309.094C365.96 309.211 365.665 309.269 365.336 309.269Z" fill="#4E5A65"/>
<path d="M25.4336 36.4858V24.8495H27.1892V29.9063H32.9904V24.8495H34.7517V36.4858H32.9904V31.412H27.1892V36.4858H25.4336ZM40.8483 36.662C40.0302 36.662 39.3161 36.4745 38.7063 36.0995C38.0964 35.7245 37.623 35.1999 37.2858 34.5256C36.9487 33.8514 36.7802 33.0635 36.7802 32.162C36.7802 31.2567 36.9487 30.465 37.2858 29.787C37.623 29.1089 38.0964 28.5824 38.7063 28.2074C39.3161 27.8324 40.0302 27.6449 40.8483 27.6449C41.6665 27.6449 42.3805 27.8324 42.9904 28.2074C43.6002 28.5824 44.0737 29.1089 44.4108 29.787C44.748 30.465 44.9165 31.2567 44.9165 32.162C44.9165 33.0635 44.748 33.8514 44.4108 34.5256C44.0737 35.1999 43.6002 35.7245 42.9904 36.0995C42.3805 36.4745 41.6665 36.662 40.8483 36.662ZM40.854 35.2358C41.3843 35.2358 41.8237 35.0957 42.1722 34.8154C42.5207 34.5351 42.7783 34.162 42.9449 33.6961C43.1154 33.2302 43.2006 32.7169 43.2006 32.1563C43.2006 31.5995 43.1154 31.0881 42.9449 30.6222C42.7783 30.1525 42.5207 29.7756 42.1722 29.4915C41.8237 29.2074 41.3843 29.0654 40.854 29.0654C40.3199 29.0654 39.8767 29.2074 39.5245 29.4915C39.176 29.7756 38.9165 30.1525 38.7461 30.6222C38.5794 31.0881 38.4961 31.5995 38.4961 32.1563C38.4961 32.7169 38.5794 33.2302 38.7461 33.6961C38.9165 34.162 39.176 34.5351 39.5245 34.8154C39.8767 35.0957 40.3199 35.2358 40.854 35.2358ZM52.3412 32.8665V27.7586H54.0458V36.4858H52.3753V34.9745H52.2844C52.0837 35.4404 51.7617 35.8286 51.3185 36.1392C50.8791 36.4461 50.3318 36.5995 49.6765 36.5995C49.1159 36.5995 48.6196 36.4764 48.1878 36.2302C47.7598 35.9802 47.4227 35.6108 47.1765 35.1222C46.934 34.6336 46.8128 34.0294 46.8128 33.3097V27.7586H48.5117V33.1052C48.5117 33.6999 48.6765 34.1733 49.006 34.5256C49.3355 34.8779 49.7636 35.054 50.2901 35.054C50.6083 35.054 50.9246 34.9745 51.239 34.8154C51.5571 34.6563 51.8204 34.4158 52.0287 34.0938C52.2409 33.7718 52.345 33.3627 52.3412 32.8665ZM56.3284 36.4858V27.7586H57.9705V29.1449H58.0614C58.2205 28.6752 58.5008 28.3059 58.9023 28.037C59.3076 27.7642 59.7659 27.6279 60.2773 27.6279C60.3834 27.6279 60.5084 27.6317 60.6523 27.6392C60.8 27.6468 60.9156 27.6563 60.9989 27.6677V29.2927C60.9307 29.2737 60.8095 29.2529 60.6353 29.2302C60.461 29.2036 60.2868 29.1904 60.1125 29.1904C59.711 29.1904 59.3531 29.2756 59.0387 29.4461C58.7281 29.6127 58.4819 29.8457 58.3 30.1449C58.1182 30.4404 58.0273 30.7775 58.0273 31.1563V36.4858H56.3284ZM69.0088 29.8892L67.4691 30.162C67.4047 29.965 67.3024 29.7775 67.1623 29.5995C67.0259 29.4214 66.8403 29.2756 66.6054 29.162C66.3706 29.0483 66.077 28.9915 65.7248 28.9915C65.2437 28.9915 64.8422 29.0995 64.5202 29.3154C64.1982 29.5275 64.0373 29.8021 64.0373 30.1392C64.0373 30.4309 64.1452 30.6658 64.3611 30.8438C64.577 31.0218 64.9255 31.1677 65.4066 31.2813L66.7929 31.5995C67.596 31.7851 68.1945 32.0711 68.5884 32.4574C68.9823 32.8438 69.1793 33.3457 69.1793 33.9631C69.1793 34.4858 69.0278 34.9517 68.7248 35.3608C68.4255 35.7661 68.007 36.0843 67.4691 36.3154C66.935 36.5464 66.3157 36.662 65.6111 36.662C64.6338 36.662 63.8365 36.4536 63.2191 36.037C62.6016 35.6165 62.2229 35.0199 62.0827 34.2472L63.7248 33.9972C63.827 34.4252 64.0373 34.7491 64.3554 34.9688C64.6736 35.1847 65.0884 35.2927 65.5998 35.2927C66.1566 35.2927 66.6016 35.1771 66.935 34.9461C67.2683 34.7112 67.435 34.4252 67.435 34.0881C67.435 33.8154 67.3327 33.5862 67.1282 33.4006C66.9274 33.215 66.6187 33.0749 66.202 32.9802L64.7248 32.6563C63.9104 32.4707 63.3081 32.1752 62.9179 31.7699C62.5316 31.3646 62.3384 30.8514 62.3384 30.2302C62.3384 29.715 62.4823 29.2642 62.7702 28.8779C63.0581 28.4915 63.4558 28.1904 63.9634 27.9745C64.471 27.7548 65.0524 27.6449 65.7077 27.6449C66.6509 27.6449 67.3933 27.8495 67.935 28.2586C68.4766 28.6639 68.8346 29.2074 69.0088 29.8892ZM77.1736 36.4858L74.6054 27.7586H76.3611L78.0713 34.1677H78.1566L79.8725 27.7586H81.6282L83.3327 34.1392H83.4179L85.1168 27.7586H86.8725L84.31 36.4858H82.577L80.8043 30.1847H80.6736L78.9009 36.4858H77.1736ZM91.8952 36.662C91.077 36.662 90.363 36.4745 89.7532 36.0995C89.1433 35.7245 88.6698 35.1999 88.3327 34.5256C87.9956 33.8514 87.827 33.0635 87.827 32.162C87.827 31.2567 87.9956 30.465 88.3327 29.787C88.6698 29.1089 89.1433 28.5824 89.7532 28.2074C90.363 27.8324 91.077 27.6449 91.8952 27.6449C92.7134 27.6449 93.4274 27.8324 94.0373 28.2074C94.6471 28.5824 95.1206 29.1089 95.4577 29.787C95.7948 30.465 95.9634 31.2567 95.9634 32.162C95.9634 33.0635 95.7948 33.8514 95.4577 34.5256C95.1206 35.1999 94.6471 35.7245 94.0373 36.0995C93.4274 36.4745 92.7134 36.662 91.8952 36.662ZM91.9009 35.2358C92.4312 35.2358 92.8706 35.0957 93.2191 34.8154C93.5676 34.5351 93.8251 34.162 93.9918 33.6961C94.1623 33.2302 94.2475 32.7169 94.2475 32.1563C94.2475 31.5995 94.1623 31.0881 93.9918 30.6222C93.8251 30.1525 93.5676 29.7756 93.2191 29.4915C92.8706 29.2074 92.4312 29.0654 91.9009 29.0654C91.3668 29.0654 90.9236 29.2074 90.5713 29.4915C90.2229 29.7756 89.9634 30.1525 89.7929 30.6222C89.6263 31.0881 89.5429 31.5995 89.5429 32.1563C89.5429 32.7169 89.6263 33.2302 89.7929 33.6961C89.9634 34.162 90.2229 34.5351 90.5713 34.8154C90.9236 35.0957 91.3668 35.2358 91.9009 35.2358ZM97.8597 36.4858V27.7586H99.5017V29.1449H99.5927C99.7517 28.6752 100.032 28.3059 100.434 28.037C100.839 27.7642 101.297 27.6279 101.809 27.6279C101.915 27.6279 102.04 27.6317 102.184 27.6392C102.331 27.6468 102.447 27.6563 102.53 27.6677V29.2927C102.462 29.2737 102.341 29.2529 102.167 29.2302C101.992 29.2036 101.818 29.1904 101.644 29.1904C101.242 29.1904 100.884 29.2756 100.57 29.4461C100.259 29.6127 100.013 29.8457 99.8313 30.1449C99.6495 30.4404 99.5586 30.7775 99.5586 31.1563V36.4858H97.8597ZM105.563 33.5256L105.551 31.4517H105.847L109.324 27.7586H111.358L107.392 31.9631H107.125L105.563 33.5256ZM104 36.4858V24.8495H105.699V36.4858H104ZM109.512 36.4858L106.387 32.3381L107.557 31.1506L111.597 36.4858H109.512ZM116.309 36.662C115.449 36.662 114.708 36.4783 114.087 36.1108C113.47 35.7396 112.992 35.2188 112.655 34.5483C112.322 33.8741 112.155 33.0843 112.155 32.179C112.155 31.2851 112.322 30.4972 112.655 29.8154C112.992 29.1336 113.462 28.6014 114.064 28.2188C114.67 27.8362 115.379 27.6449 116.189 27.6449C116.682 27.6449 117.159 27.7264 117.621 27.8892C118.083 28.0521 118.498 28.3078 118.865 28.6563C119.233 29.0048 119.523 29.4574 119.735 30.0142C119.947 30.5673 120.053 31.2396 120.053 32.0313V32.6336H113.115V31.3608H118.388C118.388 30.9139 118.297 30.518 118.115 30.1733C117.934 29.8249 117.678 29.5502 117.348 29.3495C117.023 29.1487 116.64 29.0483 116.201 29.0483C115.723 29.0483 115.307 29.1658 114.951 29.4006C114.598 29.6317 114.326 29.9347 114.132 30.3097C113.943 30.6809 113.848 31.0843 113.848 31.5199V32.5142C113.848 33.0976 113.951 33.5938 114.155 34.0029C114.363 34.412 114.653 34.7245 115.024 34.9404C115.396 35.1525 115.829 35.2586 116.326 35.2586C116.648 35.2586 116.941 35.2131 117.206 35.1222C117.471 35.0275 117.701 34.8874 117.894 34.7017C118.087 34.5161 118.235 34.287 118.337 34.0142L119.945 34.304C119.816 34.7775 119.585 35.1923 119.252 35.5483C118.922 35.9006 118.507 36.1752 118.007 36.3722C117.511 36.5654 116.945 36.662 116.309 36.662ZM125.205 36.6563C124.5 36.6563 123.872 36.4764 123.319 36.1165C122.769 35.7529 122.337 35.2358 122.023 34.5654C121.712 33.8911 121.557 33.0824 121.557 32.1392C121.557 31.1961 121.714 30.3892 122.029 29.7188C122.347 29.0483 122.783 28.5351 123.336 28.179C123.889 27.823 124.515 27.6449 125.216 27.6449C125.758 27.6449 126.194 27.7358 126.523 27.9177C126.856 28.0957 127.114 28.304 127.296 28.5427C127.481 28.7813 127.625 28.9915 127.728 29.1733H127.83V24.8495H129.529V36.4858H127.87V35.1279H127.728C127.625 35.3135 127.478 35.5256 127.284 35.7642C127.095 36.0029 126.834 36.2112 126.5 36.3892C126.167 36.5673 125.735 36.6563 125.205 36.6563ZM125.58 35.2074C126.069 35.2074 126.481 35.0786 126.819 34.8211C127.159 34.5597 127.417 34.198 127.591 33.7358C127.769 33.2737 127.858 32.7358 127.858 32.1222C127.858 31.5161 127.771 30.9858 127.597 30.5313C127.423 30.0767 127.167 29.7226 126.83 29.4688C126.493 29.215 126.076 29.0881 125.58 29.0881C125.069 29.0881 124.642 29.2207 124.301 29.4858C123.961 29.751 123.703 30.1127 123.529 30.5711C123.358 31.0294 123.273 31.5464 123.273 32.1222C123.273 32.7055 123.36 33.2302 123.534 33.6961C123.709 34.162 123.966 34.5313 124.307 34.804C124.652 35.073 125.076 35.2074 125.58 35.2074Z" fill="#35414B"/>
<rect x="362.107" y="131.236" width="233.783" height="244.948" rx="3.5" fill="white" stroke="#E1E5EA"/>
<path d="M395.587 180.022V166.931H397.562V178.322H403.494V180.022H395.587ZM408.451 180.239C407.829 180.239 407.266 180.124 406.764 179.894C406.261 179.66 405.862 179.321 405.568 178.878C405.279 178.435 405.134 177.891 405.134 177.248C405.134 176.694 405.24 176.238 405.453 175.88C405.666 175.522 405.954 175.239 406.316 175.03C406.678 174.821 407.083 174.663 407.531 174.557C407.978 174.45 408.434 174.369 408.899 174.314C409.487 174.246 409.964 174.19 410.33 174.148C410.697 174.101 410.963 174.026 411.129 173.924C411.296 173.822 411.379 173.655 411.379 173.425V173.381C411.379 172.822 411.221 172.39 410.906 172.083C410.595 171.776 410.13 171.623 409.512 171.623C408.869 171.623 408.362 171.766 407.991 172.051C407.624 172.332 407.371 172.646 407.23 172.991L405.434 172.582C405.647 171.985 405.958 171.504 406.367 171.137C406.781 170.766 407.256 170.498 407.793 170.332C408.33 170.161 408.894 170.076 409.487 170.076C409.879 170.076 410.294 170.123 410.733 170.217C411.176 170.306 411.59 170.472 411.973 170.715C412.361 170.958 412.678 171.305 412.926 171.757C413.173 172.205 413.296 172.786 413.296 173.502V180.022H411.43V178.68H411.353C411.23 178.927 411.044 179.17 410.797 179.408C410.55 179.647 410.232 179.845 409.845 180.003C409.457 180.16 408.992 180.239 408.451 180.239ZM408.867 178.705C409.395 178.705 409.847 178.601 410.222 178.392C410.601 178.183 410.889 177.91 411.085 177.574C411.285 177.233 411.385 176.869 411.385 176.481V175.215C411.317 175.283 411.185 175.347 410.989 175.407C410.797 175.462 410.578 175.511 410.33 175.554C410.083 175.592 409.842 175.629 409.608 175.663C409.374 175.692 409.178 175.718 409.02 175.739C408.649 175.786 408.311 175.865 408.004 175.976C407.701 176.087 407.458 176.246 407.275 176.455C407.096 176.66 407.007 176.932 407.007 177.273C407.007 177.746 407.181 178.104 407.531 178.347C407.88 178.586 408.325 178.705 408.867 178.705ZM422.061 175.95V170.204H423.979V180.022H422.1V178.322H421.997C421.772 178.846 421.409 179.283 420.911 179.632C420.417 179.977 419.801 180.15 419.064 180.15C418.433 180.15 417.875 180.011 417.389 179.734C416.907 179.453 416.528 179.038 416.251 178.488C415.978 177.938 415.842 177.258 415.842 176.449V170.204H417.753V176.219C417.753 176.888 417.939 177.42 418.309 177.817C418.68 178.213 419.162 178.411 419.754 178.411C420.112 178.411 420.468 178.322 420.821 178.143C421.179 177.964 421.475 177.693 421.71 177.331C421.948 176.969 422.066 176.508 422.061 175.95ZM428.458 174.192V180.022H426.547V170.204H428.382V171.802H428.503C428.729 171.282 429.083 170.864 429.564 170.549C430.05 170.234 430.661 170.076 431.399 170.076C432.068 170.076 432.654 170.217 433.156 170.498C433.659 170.775 434.049 171.188 434.326 171.738C434.603 172.288 434.742 172.967 434.742 173.777V180.022H432.83V174.007C432.83 173.295 432.645 172.739 432.274 172.339C431.904 171.934 431.394 171.731 430.747 171.731C430.303 171.731 429.909 171.827 429.564 172.019C429.223 172.211 428.953 172.492 428.752 172.863C428.556 173.229 428.458 173.673 428.458 174.192ZM441.44 180.22C440.49 180.22 439.672 180.005 438.986 179.575C438.304 179.14 437.78 178.541 437.413 177.778C437.047 177.016 436.864 176.142 436.864 175.158C436.864 174.16 437.051 173.28 437.426 172.518C437.801 171.751 438.33 171.152 439.011 170.722C439.693 170.291 440.497 170.076 441.421 170.076C442.167 170.076 442.832 170.214 443.416 170.491C443.999 170.764 444.47 171.148 444.828 171.642C445.19 172.136 445.406 172.714 445.474 173.374H443.614C443.511 172.914 443.277 172.518 442.911 172.185C442.548 171.853 442.063 171.687 441.453 171.687C440.921 171.687 440.454 171.827 440.053 172.109C439.657 172.386 439.348 172.782 439.127 173.298C438.905 173.809 438.794 174.414 438.794 175.113C438.794 175.829 438.903 176.447 439.12 176.967C439.337 177.486 439.644 177.889 440.041 178.175C440.441 178.46 440.912 178.603 441.453 178.603C441.815 178.603 442.144 178.537 442.438 178.405C442.736 178.268 442.985 178.075 443.186 177.823C443.39 177.572 443.533 177.269 443.614 176.915H445.474C445.406 177.55 445.199 178.117 444.854 178.616C444.509 179.114 444.046 179.506 443.467 179.792C442.891 180.077 442.216 180.22 441.44 180.22ZM449.429 174.192V180.022H447.518V166.931H449.403V171.802H449.525C449.755 171.273 450.106 170.854 450.58 170.543C451.053 170.231 451.67 170.076 452.433 170.076C453.106 170.076 453.695 170.214 454.197 170.491C454.705 170.768 455.097 171.182 455.374 171.731C455.655 172.277 455.795 172.959 455.795 173.777V180.022H453.884V174.007C453.884 173.287 453.699 172.729 453.328 172.332C452.957 171.932 452.442 171.731 451.781 171.731C451.33 171.731 450.925 171.827 450.567 172.019C450.213 172.211 449.934 172.492 449.729 172.863C449.529 173.229 449.429 173.673 449.429 174.192ZM462.577 180.22C461.61 180.22 460.777 180.013 460.078 179.6C459.383 179.182 458.847 178.597 458.467 177.842C458.092 177.084 457.905 176.195 457.905 175.177C457.905 174.171 458.092 173.285 458.467 172.518C458.847 171.751 459.375 171.152 460.053 170.722C460.734 170.291 461.531 170.076 462.443 170.076C462.997 170.076 463.534 170.168 464.054 170.351C464.574 170.534 465.04 170.822 465.454 171.214C465.867 171.606 466.193 172.115 466.432 172.741C466.67 173.364 466.79 174.12 466.79 175.011V175.688H458.985V174.256H464.917C464.917 173.754 464.815 173.308 464.61 172.92C464.405 172.528 464.118 172.219 463.747 171.994C463.381 171.768 462.95 171.655 462.456 171.655C461.919 171.655 461.45 171.787 461.05 172.051C460.653 172.311 460.347 172.652 460.129 173.074C459.916 173.491 459.81 173.945 459.81 174.435V175.554C459.81 176.21 459.925 176.768 460.155 177.229C460.389 177.689 460.715 178.04 461.133 178.283C461.55 178.522 462.038 178.641 462.597 178.641C462.959 178.641 463.289 178.59 463.587 178.488C463.886 178.381 464.143 178.224 464.361 178.015C464.578 177.806 464.744 177.548 464.859 177.241L466.668 177.567C466.523 178.1 466.263 178.567 465.888 178.967C465.518 179.364 465.051 179.673 464.489 179.894C463.93 180.111 463.293 180.22 462.577 180.22ZM472.586 180.214C471.793 180.214 471.086 180.011 470.464 179.606C469.846 179.197 469.36 178.616 469.006 177.861C468.657 177.103 468.482 176.193 468.482 175.132C468.482 174.071 468.659 173.163 469.013 172.409C469.371 171.655 469.861 171.077 470.483 170.677C471.105 170.276 471.81 170.076 472.598 170.076C473.208 170.076 473.698 170.178 474.069 170.383C474.444 170.583 474.733 170.817 474.938 171.086C475.147 171.354 475.309 171.591 475.424 171.795H475.539V166.931H477.45V180.022H475.584V178.494H475.424C475.309 178.703 475.143 178.942 474.925 179.21C474.712 179.479 474.418 179.713 474.043 179.913C473.668 180.114 473.182 180.214 472.586 180.214ZM473.008 178.584C473.557 178.584 474.022 178.439 474.401 178.149C474.785 177.855 475.074 177.448 475.27 176.928C475.471 176.408 475.571 175.803 475.571 175.113C475.571 174.431 475.473 173.834 475.277 173.323C475.081 172.812 474.793 172.413 474.414 172.128C474.035 171.842 473.566 171.7 473.008 171.7C472.432 171.7 471.953 171.849 471.569 172.147C471.186 172.445 470.896 172.852 470.7 173.368C470.508 173.883 470.412 174.465 470.412 175.113C470.412 175.769 470.51 176.359 470.706 176.883C470.902 177.408 471.192 177.823 471.576 178.13C471.964 178.432 472.441 178.584 473.008 178.584ZM485.095 180.022V166.931H489.761C490.78 166.931 491.623 167.116 492.292 167.487C492.961 167.858 493.462 168.365 493.795 169.008C494.127 169.648 494.293 170.368 494.293 171.169C494.293 171.974 494.125 172.699 493.788 173.342C493.456 173.981 492.953 174.489 492.28 174.864C491.611 175.234 490.769 175.42 489.755 175.42H486.546V173.745H489.576C490.219 173.745 490.741 173.634 491.142 173.413C491.542 173.187 491.836 172.88 492.024 172.492C492.211 172.104 492.305 171.663 492.305 171.169C492.305 170.675 492.211 170.236 492.024 169.852C491.836 169.469 491.54 169.168 491.135 168.951C490.735 168.734 490.206 168.625 489.55 168.625H487.07V180.022H485.095ZM496.455 180.022V170.204H498.303V171.763H498.405C498.584 171.235 498.899 170.82 499.351 170.517C499.807 170.21 500.322 170.057 500.898 170.057C501.017 170.057 501.158 170.061 501.32 170.07C501.486 170.078 501.616 170.089 501.709 170.102V171.93C501.633 171.908 501.496 171.885 501.3 171.859C501.104 171.83 500.908 171.815 500.712 171.815C500.261 171.815 499.858 171.91 499.504 172.102C499.155 172.29 498.878 172.552 498.673 172.888C498.469 173.221 498.366 173.6 498.366 174.026V180.022H496.455ZM507.148 180.22C506.227 180.22 505.424 180.009 504.738 179.587C504.052 179.165 503.519 178.575 503.14 177.817C502.76 177.058 502.571 176.172 502.571 175.158C502.571 174.139 502.76 173.249 503.14 172.486C503.519 171.723 504.052 171.131 504.738 170.709C505.424 170.287 506.227 170.076 507.148 170.076C508.068 170.076 508.871 170.287 509.557 170.709C510.243 171.131 510.776 171.723 511.155 172.486C511.535 173.249 511.724 174.139 511.724 175.158C511.724 176.172 511.535 177.058 511.155 177.817C510.776 178.575 510.243 179.165 509.557 179.587C508.871 180.009 508.068 180.22 507.148 180.22ZM507.154 178.616C507.75 178.616 508.245 178.458 508.637 178.143C509.029 177.827 509.319 177.408 509.506 176.883C509.698 176.359 509.794 175.782 509.794 175.151C509.794 174.525 509.698 173.95 509.506 173.425C509.319 172.897 509.029 172.473 508.637 172.153C508.245 171.834 507.75 171.674 507.154 171.674C506.553 171.674 506.054 171.834 505.658 172.153C505.266 172.473 504.974 172.897 504.782 173.425C504.595 173.95 504.501 174.525 504.501 175.151C504.501 175.782 504.595 176.359 504.782 176.883C504.974 177.408 505.266 177.827 505.658 178.143C506.054 178.458 506.553 178.616 507.154 178.616ZM513.858 170.204H515.769V180.661C515.769 181.317 515.649 181.871 515.411 182.323C515.176 182.775 514.827 183.118 514.363 183.352C513.902 183.587 513.333 183.704 512.656 183.704C512.588 183.704 512.524 183.704 512.464 183.704C512.4 183.704 512.334 183.702 512.266 183.697V182.055C512.326 182.055 512.379 182.055 512.426 182.055C512.468 182.055 512.517 182.055 512.573 182.055C513.024 182.055 513.35 181.933 513.551 181.69C513.755 181.452 513.858 181.104 513.858 180.648V170.204ZM514.804 168.689C514.471 168.689 514.186 168.578 513.947 168.356C513.713 168.131 513.595 167.862 513.595 167.551C513.595 167.236 513.713 166.967 513.947 166.746C514.186 166.52 514.471 166.407 514.804 166.407C515.136 166.407 515.419 166.52 515.654 166.746C515.892 166.967 516.012 167.236 516.012 167.551C516.012 167.862 515.892 168.131 515.654 168.356C515.419 168.578 515.136 168.689 514.804 168.689ZM522.572 180.22C521.604 180.22 520.771 180.013 520.072 179.6C519.378 179.182 518.841 178.597 518.461 177.842C518.086 177.084 517.899 176.195 517.899 175.177C517.899 174.171 518.086 173.285 518.461 172.518C518.841 171.751 519.369 171.152 520.047 170.722C520.728 170.291 521.525 170.076 522.437 170.076C522.991 170.076 523.528 170.168 524.048 170.351C524.568 170.534 525.035 170.822 525.448 171.214C525.861 171.606 526.187 172.115 526.426 172.741C526.665 173.364 526.784 174.12 526.784 175.011V175.688H518.979V174.256H524.911C524.911 173.754 524.809 173.308 524.604 172.92C524.4 172.528 524.112 172.219 523.741 171.994C523.375 171.768 522.944 171.655 522.45 171.655C521.913 171.655 521.444 171.787 521.044 172.051C520.648 172.311 520.341 172.652 520.123 173.074C519.91 173.491 519.804 173.945 519.804 174.435V175.554C519.804 176.21 519.919 176.768 520.149 177.229C520.383 177.689 520.709 178.04 521.127 178.283C521.545 178.522 522.032 178.641 522.591 178.641C522.953 178.641 523.283 178.59 523.581 178.488C523.88 178.381 524.138 178.224 524.355 178.015C524.572 177.806 524.738 177.548 524.853 177.241L526.662 177.567C526.518 178.1 526.258 178.567 525.883 178.967C525.512 179.364 525.045 179.673 524.483 179.894C523.924 180.111 523.287 180.22 522.572 180.22ZM533.04 180.22C532.09 180.22 531.272 180.005 530.586 179.575C529.904 179.14 529.38 178.541 529.013 177.778C528.647 177.016 528.463 176.142 528.463 175.158C528.463 174.16 528.651 173.28 529.026 172.518C529.401 171.751 529.929 171.152 530.611 170.722C531.293 170.291 532.096 170.076 533.021 170.076C533.767 170.076 534.431 170.214 535.015 170.491C535.599 170.764 536.07 171.148 536.428 171.642C536.79 172.136 537.005 172.714 537.073 173.374H535.213C535.111 172.914 534.877 172.518 534.51 172.185C534.148 171.853 533.662 171.687 533.053 171.687C532.52 171.687 532.054 171.827 531.653 172.109C531.257 172.386 530.948 172.782 530.726 173.298C530.505 173.809 530.394 174.414 530.394 175.113C530.394 175.829 530.502 176.447 530.72 176.967C530.937 177.486 531.244 177.889 531.64 178.175C532.041 178.46 532.512 178.603 533.053 178.603C533.415 178.603 533.743 178.537 534.037 178.405C534.336 178.268 534.585 178.075 534.785 177.823C534.99 177.572 535.132 177.269 535.213 176.915H537.073C537.005 177.55 536.799 178.117 536.453 178.616C536.108 179.114 535.646 179.506 535.066 179.792C534.491 180.077 533.816 180.22 533.04 180.22ZM543.7 170.204V171.738H538.337V170.204H543.7ZM539.776 167.852H541.687V177.139C541.687 177.51 541.742 177.789 541.853 177.977C541.964 178.16 542.107 178.285 542.281 178.354C542.46 178.418 542.654 178.45 542.863 178.45C543.016 178.45 543.151 178.439 543.266 178.418C543.381 178.396 543.47 178.379 543.534 178.366L543.879 179.945C543.769 179.988 543.611 180.03 543.406 180.073C543.202 180.12 542.946 180.146 542.639 180.15C542.136 180.158 541.668 180.069 541.233 179.881C540.798 179.694 540.447 179.404 540.178 179.012C539.91 178.62 539.776 178.128 539.776 177.535V167.852ZM553.014 172.601L551.281 172.908C551.209 172.686 551.094 172.475 550.936 172.275C550.783 172.075 550.574 171.91 550.31 171.783C550.046 171.655 549.715 171.591 549.319 171.591C548.778 171.591 548.326 171.712 547.964 171.955C547.602 172.194 547.421 172.503 547.421 172.882C547.421 173.21 547.542 173.474 547.785 173.675C548.028 173.875 548.42 174.039 548.961 174.167L550.521 174.525C551.424 174.734 552.097 175.055 552.541 175.49C552.984 175.925 553.205 176.489 553.205 177.184C553.205 177.772 553.035 178.296 552.694 178.756C552.357 179.212 551.886 179.57 551.281 179.83C550.681 180.09 549.984 180.22 549.191 180.22C548.092 180.22 547.195 179.986 546.5 179.517C545.806 179.044 545.379 178.373 545.222 177.504L547.069 177.222C547.184 177.704 547.421 178.068 547.779 178.315C548.136 178.558 548.603 178.68 549.178 178.68C549.805 178.68 550.306 178.55 550.681 178.29C551.056 178.026 551.243 177.704 551.243 177.325C551.243 177.018 551.128 176.76 550.898 176.551C550.672 176.342 550.325 176.185 549.856 176.078L548.194 175.714C547.278 175.505 546.6 175.173 546.161 174.717C545.727 174.261 545.509 173.683 545.509 172.984C545.509 172.405 545.671 171.898 545.995 171.463C546.319 171.028 546.766 170.69 547.337 170.447C547.909 170.2 548.563 170.076 549.3 170.076C550.361 170.076 551.196 170.306 551.806 170.766C552.415 171.222 552.818 171.834 553.014 172.601Z" fill="#35414B"/>
<path d="M397.932 339.997H398.636V344.156C398.636 344.527 398.568 344.842 398.432 345.102C398.295 345.361 398.103 345.558 397.855 345.693C397.607 345.827 397.314 345.894 396.977 345.894C396.659 345.894 396.376 345.837 396.128 345.721C395.88 345.604 395.685 345.437 395.543 345.221C395.401 345.005 395.33 344.749 395.33 344.451H396.023C396.023 344.616 396.063 344.76 396.145 344.883C396.228 345.004 396.342 345.099 396.486 345.167C396.63 345.235 396.794 345.269 396.977 345.269C397.18 345.269 397.352 345.227 397.494 345.142C397.636 345.056 397.744 344.931 397.818 344.767C397.894 344.6 397.932 344.396 397.932 344.156V339.997ZM401.241 345.917C400.965 345.917 400.714 345.865 400.489 345.761C400.263 345.655 400.084 345.502 399.952 345.304C399.819 345.103 399.753 344.86 399.753 344.576C399.753 344.326 399.802 344.124 399.901 343.968C399.999 343.811 400.131 343.688 400.295 343.599C400.46 343.51 400.642 343.444 400.841 343.4C401.042 343.355 401.243 343.319 401.446 343.292C401.711 343.258 401.926 343.233 402.091 343.216C402.258 343.197 402.379 343.165 402.455 343.122C402.532 343.078 402.571 343.002 402.571 342.894V342.872C402.571 342.591 402.494 342.374 402.341 342.218C402.189 342.063 401.959 341.985 401.651 341.985C401.33 341.985 401.08 342.055 400.898 342.196C400.716 342.336 400.588 342.485 400.514 342.644L399.878 342.417C399.991 342.152 400.143 341.946 400.332 341.798C400.524 341.648 400.732 341.544 400.957 341.485C401.185 341.425 401.408 341.394 401.628 341.394C401.768 341.394 401.929 341.412 402.111 341.446C402.295 341.478 402.472 341.545 402.642 341.647C402.814 341.75 402.957 341.904 403.071 342.11C403.185 342.317 403.241 342.593 403.241 342.94V345.815H402.571V345.224H402.537C402.491 345.319 402.416 345.42 402.31 345.528C402.204 345.636 402.063 345.728 401.886 345.804C401.71 345.879 401.495 345.917 401.241 345.917ZM401.344 345.315C401.609 345.315 401.832 345.263 402.014 345.159C402.198 345.055 402.336 344.92 402.429 344.755C402.524 344.591 402.571 344.417 402.571 344.235V343.622C402.543 343.656 402.48 343.687 402.384 343.716C402.289 343.742 402.179 343.766 402.054 343.787C401.931 343.805 401.811 343.823 401.693 343.838C401.578 343.851 401.484 343.862 401.412 343.872C401.238 343.894 401.075 343.931 400.923 343.983C400.774 344.032 400.652 344.107 400.56 344.207C400.469 344.305 400.423 344.44 400.423 344.61C400.423 344.843 400.509 345.019 400.682 345.139C400.856 345.256 401.077 345.315 401.344 345.315ZM405.136 343.19V345.815H404.465V341.451H405.113V342.133H405.17C405.272 341.912 405.427 341.734 405.636 341.599C405.844 341.463 406.113 341.394 406.442 341.394C406.738 341.394 406.996 341.455 407.218 341.576C407.44 341.696 407.612 341.877 407.735 342.122C407.858 342.364 407.92 342.671 407.92 343.042V345.815H407.249V343.088C407.249 342.745 407.16 342.478 406.982 342.287C406.804 342.093 406.56 341.997 406.249 341.997C406.035 341.997 405.844 342.043 405.675 342.136C405.509 342.229 405.377 342.364 405.281 342.542C405.184 342.72 405.136 342.936 405.136 343.19Z" fill="#4E5A65"/>
<path d="M397.614 238.566V237.856L400.129 233.884H400.688V234.93H400.333L398.535 237.777V237.822H401.981V238.566H397.614ZM400.373 239.703V238.35L400.379 238.027V233.884H401.211V239.703H400.373ZM405.002 239.782C404.743 239.778 404.487 239.731 404.235 239.64C403.985 239.549 403.758 239.398 403.553 239.186C403.349 238.973 403.185 238.688 403.062 238.33C402.941 237.973 402.88 237.526 402.88 236.99C402.88 236.482 402.93 236.031 403.03 235.637C403.133 235.243 403.28 234.911 403.471 234.64C403.662 234.367 403.893 234.16 404.164 234.018C404.435 233.876 404.739 233.805 405.076 233.805C405.423 233.805 405.73 233.873 405.999 234.009C406.268 234.146 406.486 234.334 406.653 234.575C406.821 234.815 406.928 235.089 406.974 235.396H406.107C406.048 235.153 405.932 234.955 405.758 234.802C405.584 234.649 405.356 234.572 405.076 234.572C404.65 234.572 404.317 234.758 404.079 235.129C403.842 235.5 403.723 236.016 403.721 236.677H403.763C403.864 236.512 403.987 236.372 404.133 236.257C404.28 236.139 404.445 236.049 404.627 235.987C404.811 235.922 405.004 235.89 405.207 235.89C405.544 235.89 405.849 235.973 406.121 236.137C406.396 236.3 406.615 236.526 406.778 236.813C406.941 237.101 407.022 237.431 407.022 237.802C407.022 238.173 406.938 238.509 406.769 238.811C406.602 239.112 406.368 239.35 406.065 239.527C405.762 239.701 405.407 239.786 405.002 239.782ZM404.999 239.044C405.223 239.044 405.423 238.989 405.599 238.879C405.775 238.769 405.914 238.621 406.016 238.436C406.119 238.25 406.17 238.043 406.17 237.813C406.17 237.59 406.12 237.386 406.019 237.203C405.921 237.019 405.784 236.873 405.61 236.765C405.438 236.657 405.241 236.603 405.019 236.603C404.851 236.603 404.694 236.635 404.55 236.7C404.408 236.764 404.283 236.853 404.175 236.967C404.067 237.08 403.982 237.211 403.92 237.359C403.859 237.505 403.829 237.659 403.829 237.822C403.829 238.04 403.879 238.241 403.979 238.427C404.082 238.613 404.221 238.762 404.397 238.876C404.575 238.988 404.776 239.044 404.999 239.044Z" fill="#4E5A65"/>
<path d="M394 252.526C394 250.317 395.791 248.526 398 248.526H407C409.209 248.526 411 250.317 411 252.526V331.368H394V252.526Z" fill="#F3F5F9"/>
<path d="M435.614 226.466V225.755L438.129 221.784H438.688V222.829H438.333L436.535 225.676V225.721H439.981V226.466H435.614ZM438.373 227.602V226.25L438.379 225.926V221.784H439.211V227.602H438.373ZM443.002 227.682C442.743 227.678 442.487 227.63 442.235 227.54C441.985 227.449 441.758 227.297 441.553 227.085C441.349 226.873 441.185 226.588 441.062 226.23C440.941 225.872 440.88 225.425 440.88 224.889C440.88 224.381 440.93 223.931 441.03 223.537C441.133 223.143 441.28 222.81 441.471 222.54C441.662 222.267 441.893 222.059 442.164 221.917C442.435 221.775 442.739 221.704 443.076 221.704C443.423 221.704 443.73 221.773 443.999 221.909C444.268 222.045 444.486 222.234 444.653 222.474C444.821 222.715 444.928 222.988 444.974 223.295H444.107C444.048 223.053 443.932 222.855 443.758 222.701C443.584 222.548 443.356 222.471 443.076 222.471C442.65 222.471 442.317 222.657 442.079 223.028C441.842 223.399 441.723 223.915 441.721 224.576H441.763C441.864 224.412 441.987 224.272 442.133 224.156C442.28 224.039 442.445 223.949 442.627 223.886C442.811 223.822 443.004 223.79 443.207 223.79C443.544 223.79 443.849 223.872 444.121 224.037C444.396 224.2 444.615 224.425 444.778 224.713C444.941 225.001 445.022 225.33 445.022 225.701C445.022 226.073 444.938 226.409 444.769 226.71C444.602 227.011 444.368 227.25 444.065 227.426C443.762 227.6 443.407 227.685 443.002 227.682ZM442.999 226.943C443.223 226.943 443.423 226.888 443.599 226.778C443.775 226.668 443.914 226.521 444.016 226.335C444.119 226.149 444.17 225.942 444.17 225.713C444.17 225.489 444.12 225.286 444.019 225.102C443.921 224.918 443.784 224.773 443.61 224.665C443.438 224.557 443.241 224.503 443.019 224.503C442.851 224.503 442.694 224.535 442.55 224.599C442.408 224.664 442.283 224.753 442.175 224.866C442.067 224.98 441.982 225.111 441.92 225.258C441.859 225.404 441.829 225.558 441.829 225.721C441.829 225.939 441.879 226.141 441.979 226.326C442.082 226.512 442.221 226.662 442.397 226.775C442.575 226.887 442.776 226.943 442.999 226.943Z" fill="#5FCB79"/>
<path d="M433.705 345.815V339.997H437.193V340.622H434.409V342.588H436.932V343.213H434.409V345.815H433.705ZM439.818 345.906C439.398 345.906 439.035 345.813 438.73 345.627C438.427 345.44 438.193 345.179 438.028 344.843C437.866 344.506 437.784 344.114 437.784 343.667C437.784 343.22 437.866 342.826 438.028 342.485C438.193 342.143 438.422 341.876 438.716 341.684C439.011 341.491 439.356 341.394 439.75 341.394C439.977 341.394 440.202 341.432 440.423 341.508C440.645 341.584 440.847 341.707 441.028 341.877C441.21 342.046 441.355 342.269 441.463 342.548C441.571 342.826 441.625 343.169 441.625 343.576V343.86H438.261V343.281H440.943C440.943 343.035 440.894 342.815 440.795 342.622C440.699 342.429 440.561 342.276 440.381 342.164C440.203 342.053 439.992 341.997 439.75 341.997C439.483 341.997 439.252 342.063 439.057 342.196C438.864 342.326 438.715 342.497 438.611 342.707C438.507 342.917 438.455 343.143 438.455 343.383V343.769C438.455 344.099 438.511 344.378 438.625 344.608C438.741 344.835 438.901 345.008 439.105 345.127C439.31 345.245 439.547 345.304 439.818 345.304C439.994 345.304 440.153 345.279 440.295 345.23C440.439 345.179 440.563 345.103 440.668 345.002C440.772 344.9 440.852 344.773 440.909 344.622L441.557 344.804C441.489 345.023 441.374 345.216 441.213 345.383C441.052 345.548 440.853 345.677 440.616 345.769C440.38 345.86 440.114 345.906 439.818 345.906ZM442.736 345.815V339.997H443.406V342.144H443.463C443.512 342.069 443.58 341.972 443.668 341.855C443.757 341.735 443.884 341.629 444.048 341.537C444.215 341.442 444.44 341.394 444.724 341.394C445.092 341.394 445.416 341.486 445.696 341.67C445.976 341.854 446.195 342.114 446.352 342.451C446.509 342.788 446.588 343.186 446.588 343.644C446.588 344.107 446.509 344.507 446.352 344.846C446.195 345.183 445.977 345.445 445.699 345.63C445.42 345.814 445.099 345.906 444.736 345.906C444.455 345.906 444.231 345.859 444.062 345.767C443.894 345.672 443.764 345.565 443.673 345.446C443.582 345.324 443.512 345.224 443.463 345.144H443.384V345.815H442.736ZM443.395 343.633C443.395 343.963 443.443 344.253 443.54 344.505C443.636 344.755 443.777 344.951 443.963 345.093C444.149 345.234 444.376 345.304 444.645 345.304C444.925 345.304 445.159 345.23 445.347 345.082C445.536 344.932 445.678 344.732 445.773 344.48C445.869 344.226 445.918 343.944 445.918 343.633C445.918 343.326 445.87 343.05 445.776 342.804C445.683 342.555 445.542 342.359 445.352 342.216C445.165 342.07 444.929 341.997 444.645 341.997C444.372 341.997 444.143 342.066 443.957 342.204C443.772 342.341 443.632 342.532 443.537 342.778C443.442 343.022 443.395 343.307 443.395 343.633Z" fill="#5FCB79"/>
<path d="M432 240.426C432 238.217 433.791 236.426 436 236.426H445C447.209 236.426 449 238.217 449 240.426V331.368H432V240.426Z" fill="#5FCB79"/>
<path d="M473.901 263.025V262.389L475.869 260.349C476.079 260.127 476.253 259.933 476.389 259.767C476.527 259.598 476.631 259.438 476.699 259.287C476.767 259.135 476.801 258.974 476.801 258.804C476.801 258.61 476.756 258.444 476.665 258.304C476.574 258.162 476.45 258.053 476.293 257.977C476.135 257.899 475.958 257.86 475.761 257.86C475.553 257.86 475.371 257.903 475.216 257.988C475.061 258.073 474.941 258.194 474.858 258.349C474.775 258.504 474.733 258.686 474.733 258.894H473.895C473.895 258.54 473.976 258.231 474.139 257.965C474.302 257.7 474.526 257.495 474.81 257.349C475.094 257.201 475.417 257.127 475.778 257.127C476.144 257.127 476.466 257.2 476.744 257.346C477.025 257.49 477.243 257.687 477.401 257.937C477.558 258.185 477.636 258.465 477.636 258.778C477.636 258.994 477.596 259.205 477.514 259.412C477.435 259.618 477.295 259.848 477.097 260.102C476.898 260.354 476.621 260.66 476.267 261.019L475.111 262.23V262.272H477.73V263.025H473.901ZM480.741 257.127C481.001 257.129 481.257 257.177 481.508 257.269C481.76 257.362 481.988 257.514 482.19 257.724C482.395 257.934 482.558 258.218 482.679 258.576C482.802 258.932 482.865 259.376 482.866 259.906C482.866 260.415 482.815 260.869 482.713 261.267C482.611 261.662 482.464 261.997 482.273 262.269C482.083 262.542 481.853 262.75 481.582 262.892C481.312 263.034 481.007 263.105 480.668 263.105C480.321 263.105 480.013 263.037 479.744 262.9C479.475 262.764 479.257 262.575 479.088 262.335C478.919 262.092 478.814 261.814 478.773 261.5H479.639C479.696 261.75 479.812 261.952 479.986 262.108C480.162 262.261 480.389 262.338 480.668 262.338C481.094 262.338 481.426 262.152 481.665 261.781C481.903 261.408 482.024 260.887 482.026 260.218H481.98C481.882 260.381 481.758 260.521 481.611 260.639C481.465 260.756 481.301 260.847 481.119 260.912C480.937 260.976 480.743 261.008 480.537 261.008C480.202 261.008 479.897 260.926 479.622 260.761C479.347 260.596 479.129 260.37 478.966 260.082C478.803 259.794 478.722 259.465 478.722 259.096C478.722 258.729 478.805 258.395 478.972 258.096C479.14 257.797 479.375 257.56 479.676 257.386C479.979 257.21 480.334 257.124 480.741 257.127ZM480.744 257.866C480.523 257.866 480.323 257.921 480.145 258.031C479.969 258.139 479.829 258.286 479.727 258.471C479.625 258.655 479.574 258.859 479.574 259.085C479.574 259.31 479.623 259.515 479.722 259.698C479.822 259.88 479.958 260.025 480.131 260.133C480.305 260.239 480.504 260.292 480.727 260.292C480.894 260.292 481.049 260.26 481.193 260.196C481.337 260.131 481.463 260.042 481.571 259.929C481.679 259.813 481.763 259.682 481.824 259.537C481.884 259.391 481.915 259.237 481.915 259.076C481.915 258.862 481.864 258.663 481.761 258.48C481.661 258.296 481.523 258.148 481.347 258.037C481.17 257.923 480.97 257.866 480.744 257.866Z" fill="#4E5A65"/>
<path d="M471.705 339.997H472.545L474.523 344.826H474.591L476.568 339.997H477.409V345.815H476.75V341.394H476.693L474.875 345.815H474.239L472.42 341.394H472.364V345.815H471.705V339.997ZM480.015 345.917C479.738 345.917 479.487 345.865 479.262 345.761C479.037 345.655 478.858 345.502 478.725 345.304C478.593 345.103 478.526 344.86 478.526 344.576C478.526 344.326 478.576 344.124 478.674 343.968C478.772 343.811 478.904 343.688 479.069 343.599C479.234 343.51 479.415 343.444 479.614 343.4C479.815 343.355 480.017 343.319 480.219 343.292C480.485 343.258 480.7 343.233 480.864 343.216C481.031 343.197 481.152 343.165 481.228 343.122C481.306 343.078 481.344 343.002 481.344 342.894V342.872C481.344 342.591 481.268 342.374 481.114 342.218C480.963 342.063 480.733 341.985 480.424 341.985C480.104 341.985 479.853 342.055 479.671 342.196C479.489 342.336 479.362 342.485 479.288 342.644L478.651 342.417C478.765 342.152 478.916 341.946 479.106 341.798C479.297 341.648 479.505 341.544 479.731 341.485C479.958 341.425 480.182 341.394 480.401 341.394C480.541 341.394 480.702 341.412 480.884 341.446C481.068 341.478 481.245 341.545 481.415 341.647C481.588 341.75 481.731 341.904 481.844 342.11C481.958 342.317 482.015 342.593 482.015 342.94V345.815H481.344V345.224H481.31C481.265 345.319 481.189 345.42 481.083 345.528C480.977 345.636 480.836 345.728 480.66 345.804C480.484 345.879 480.269 345.917 480.015 345.917ZM480.117 345.315C480.382 345.315 480.606 345.263 480.788 345.159C480.971 345.055 481.11 344.92 481.202 344.755C481.297 344.591 481.344 344.417 481.344 344.235V343.622C481.316 343.656 481.254 343.687 481.157 343.716C481.062 343.742 480.952 343.766 480.827 343.787C480.704 343.805 480.584 343.823 480.467 343.838C480.351 343.851 480.257 343.862 480.185 343.872C480.011 343.894 479.848 343.931 479.697 343.983C479.547 344.032 479.426 344.107 479.333 344.207C479.242 344.305 479.197 344.44 479.197 344.61C479.197 344.843 479.283 345.019 479.455 345.139C479.629 345.256 479.85 345.315 480.117 345.315ZM483.239 345.815V341.451H483.886V342.11H483.932C484.011 341.894 484.155 341.719 484.364 341.585C484.572 341.45 484.807 341.383 485.068 341.383C485.117 341.383 485.179 341.384 485.253 341.386C485.327 341.388 485.383 341.391 485.42 341.394V342.076C485.398 342.071 485.346 342.062 485.264 342.051C485.185 342.037 485.1 342.031 485.011 342.031C484.799 342.031 484.61 342.075 484.443 342.164C484.278 342.251 484.148 342.373 484.051 342.528C483.956 342.681 483.909 342.857 483.909 343.054V345.815H483.239Z" fill="#4E5A65"/>
<path d="M470 275.797C470 273.587 471.791 271.797 474 271.797H483C485.209 271.797 487 273.587 487 275.797V331.368H470V275.797Z" fill="#F3F5F9"/>
<path d="M513.864 249.539C513.473 249.539 513.125 249.472 512.818 249.338C512.513 249.203 512.272 249.017 512.094 248.778C511.918 248.537 511.823 248.259 511.81 247.943H512.702C512.713 248.115 512.771 248.265 512.875 248.392C512.981 248.517 513.119 248.613 513.29 248.681C513.46 248.749 513.65 248.784 513.858 248.784C514.087 248.784 514.29 248.744 514.466 248.664C514.644 248.585 514.783 248.474 514.883 248.332C514.984 248.188 515.034 248.022 515.034 247.835C515.034 247.64 514.984 247.468 514.883 247.321C514.785 247.171 514.64 247.053 514.449 246.968C514.259 246.883 514.03 246.84 513.761 246.84H513.27V246.124H513.761C513.977 246.124 514.167 246.086 514.329 246.008C514.494 245.93 514.623 245.822 514.716 245.684C514.809 245.544 514.855 245.38 514.855 245.193C514.855 245.013 514.814 244.856 514.733 244.724C514.653 244.589 514.54 244.484 514.392 244.409C514.246 244.333 514.074 244.295 513.875 244.295C513.686 244.295 513.508 244.33 513.344 244.4C513.181 244.468 513.048 244.567 512.946 244.696C512.844 244.822 512.789 244.975 512.781 245.153H511.932C511.941 244.839 512.034 244.562 512.21 244.323C512.388 244.085 512.623 243.898 512.915 243.764C513.206 243.629 513.53 243.562 513.886 243.562C514.259 243.562 514.581 243.635 514.852 243.781C515.125 243.925 515.335 244.117 515.483 244.357C515.633 244.598 515.706 244.861 515.704 245.147C515.706 245.473 515.615 245.749 515.432 245.977C515.25 246.204 515.008 246.356 514.704 246.434V246.48C515.091 246.538 515.39 246.692 515.602 246.94C515.816 247.188 515.922 247.496 515.92 247.863C515.922 248.183 515.833 248.47 515.653 248.724C515.475 248.978 515.232 249.178 514.923 249.323C514.615 249.467 514.261 249.539 513.864 249.539ZM518.915 249.539C518.559 249.539 518.239 249.471 517.954 249.335C517.672 249.196 517.447 249.007 517.278 248.767C517.11 248.526 517.02 248.251 517.008 247.943H517.861C517.882 248.193 517.992 248.398 518.193 248.559C518.394 248.72 518.634 248.801 518.915 248.801C519.138 248.801 519.336 248.749 519.508 248.647C519.683 248.543 519.819 248.4 519.918 248.218C520.018 248.036 520.068 247.829 520.068 247.596C520.068 247.359 520.017 247.148 519.915 246.963C519.812 246.777 519.671 246.631 519.491 246.525C519.313 246.419 519.109 246.365 518.878 246.363C518.702 246.363 518.525 246.393 518.347 246.454C518.169 246.515 518.025 246.594 517.915 246.693L517.111 246.573L517.437 243.642H520.636V244.394H518.168L517.983 246.022H518.017C518.131 245.912 518.281 245.821 518.469 245.747C518.658 245.673 518.861 245.636 519.077 245.636C519.431 245.636 519.746 245.72 520.023 245.889C520.301 246.057 520.52 246.287 520.679 246.579C520.84 246.869 520.919 247.202 520.918 247.579C520.919 247.956 520.834 248.292 520.662 248.588C520.491 248.883 520.255 249.116 519.952 249.286C519.651 249.455 519.305 249.539 518.915 249.539Z" fill="#4E5A65"/>
<path d="M508.943 345.815H508.205L510.341 339.997H511.068L513.205 345.815H512.466L510.727 340.917H510.682L508.943 345.815ZM509.216 343.542H512.193V344.167H509.216V343.542ZM514.02 347.451V341.451H514.668V342.144H514.747C514.796 342.069 514.865 341.972 514.952 341.855C515.041 341.735 515.168 341.629 515.332 341.537C515.499 341.442 515.724 341.394 516.009 341.394C516.376 341.394 516.7 341.486 516.98 341.67C517.26 341.854 517.479 342.114 517.636 342.451C517.794 342.788 517.872 343.186 517.872 343.644C517.872 344.107 517.794 344.507 517.636 344.846C517.479 345.183 517.261 345.445 516.983 345.63C516.705 345.814 516.384 345.906 516.02 345.906C515.74 345.906 515.515 345.859 515.347 345.767C515.178 345.672 515.048 345.565 514.957 345.446C514.866 345.324 514.796 345.224 514.747 345.144H514.69V347.451H514.02ZM514.679 343.633C514.679 343.963 514.727 344.253 514.824 344.505C514.92 344.755 515.062 344.951 515.247 345.093C515.433 345.234 515.66 345.304 515.929 345.304C516.209 345.304 516.443 345.23 516.631 345.082C516.82 344.932 516.962 344.732 517.057 344.48C517.153 344.226 517.202 343.944 517.202 343.633C517.202 343.326 517.154 343.05 517.06 342.804C516.967 342.555 516.826 342.359 516.636 342.216C516.449 342.07 516.213 341.997 515.929 341.997C515.656 341.997 515.427 342.066 515.241 342.204C515.056 342.341 514.916 342.532 514.821 342.778C514.726 343.022 514.679 343.307 514.679 343.633ZM518.895 345.815V341.451H519.543V342.11H519.588C519.668 341.894 519.812 341.719 520.02 341.585C520.228 341.45 520.463 341.383 520.724 341.383C520.774 341.383 520.835 341.384 520.909 341.386C520.983 341.388 521.039 341.391 521.077 341.394V342.076C521.054 342.071 521.002 342.062 520.92 342.051C520.841 342.037 520.757 342.031 520.668 342.031C520.455 342.031 520.266 342.075 520.099 342.164C519.935 342.251 519.804 342.373 519.707 342.528C519.613 342.681 519.565 342.857 519.565 343.054V345.815H518.895Z" fill="#4E5A65"/>
<path d="M508 261.834C508 259.625 509.791 257.834 512 257.834H521C523.209 257.834 525 259.625 525 261.834V331.368H508V261.834Z" fill="#F3F5F9"/>
<path d="M549.901 269.946V269.309L551.869 267.27C552.079 267.048 552.253 266.854 552.389 266.687C552.527 266.519 552.631 266.359 552.699 266.207C552.767 266.056 552.801 265.895 552.801 265.724C552.801 265.531 552.756 265.364 552.665 265.224C552.574 265.082 552.45 264.973 552.293 264.898C552.135 264.82 551.958 264.781 551.761 264.781C551.553 264.781 551.371 264.824 551.216 264.909C551.061 264.994 550.941 265.114 550.858 265.27C550.775 265.425 550.733 265.607 550.733 265.815H549.895C549.895 265.461 549.976 265.151 550.139 264.886C550.302 264.621 550.526 264.415 550.81 264.27C551.094 264.122 551.417 264.048 551.778 264.048C552.144 264.048 552.466 264.121 552.744 264.267C553.025 264.411 553.243 264.608 553.401 264.858C553.558 265.106 553.636 265.386 553.636 265.699C553.636 265.915 553.596 266.126 553.514 266.332C553.435 266.539 553.295 266.769 553.097 267.023C552.898 267.274 552.621 267.58 552.267 267.94L551.111 269.15V269.193H553.73V269.946H549.901ZM556.838 270.025C556.579 270.022 556.323 269.974 556.071 269.883C555.821 269.792 555.594 269.641 555.389 269.429C555.185 269.217 555.021 268.932 554.898 268.574C554.776 268.216 554.716 267.769 554.716 267.233C554.716 266.725 554.766 266.274 554.866 265.88C554.969 265.487 555.115 265.154 555.307 264.883C555.498 264.611 555.729 264.403 556 264.261C556.271 264.119 556.575 264.048 556.912 264.048C557.258 264.048 557.566 264.116 557.835 264.253C558.104 264.389 558.322 264.577 558.489 264.818C558.657 265.058 558.764 265.332 558.81 265.639H557.943C557.884 265.397 557.768 265.199 557.594 265.045C557.419 264.892 557.192 264.815 556.912 264.815C556.486 264.815 556.153 265.001 555.915 265.372C555.678 265.743 555.559 266.259 555.557 266.92H555.599C555.7 266.755 555.823 266.615 555.969 266.5C556.116 266.382 556.281 266.292 556.463 266.23C556.647 266.165 556.84 266.133 557.043 266.133C557.38 266.133 557.685 266.216 557.957 266.38C558.232 266.543 558.451 266.769 558.614 267.057C558.776 267.344 558.858 267.674 558.858 268.045C558.858 268.416 558.774 268.753 558.605 269.054C558.438 269.355 558.204 269.594 557.901 269.77C557.597 269.944 557.243 270.029 556.838 270.025ZM556.835 269.287C557.059 269.287 557.258 269.232 557.435 269.122C557.611 269.012 557.75 268.864 557.852 268.679C557.954 268.493 558.006 268.286 558.006 268.057C558.006 267.833 557.955 267.63 557.855 267.446C557.757 267.262 557.62 267.116 557.446 267.008C557.274 266.9 557.077 266.846 556.855 266.846C556.687 266.846 556.53 266.879 556.386 266.943C556.244 267.007 556.119 267.096 556.011 267.21C555.903 267.324 555.818 267.454 555.756 267.602C555.695 267.748 555.665 267.902 555.665 268.065C555.665 268.283 555.715 268.485 555.815 268.67C555.918 268.856 556.057 269.005 556.233 269.119C556.411 269.231 556.612 269.287 556.835 269.287Z" fill="#4E5A65"/>
<path d="M547.705 339.997H548.545L550.523 344.826H550.591L552.568 339.997H553.409V345.815H552.75V341.394H552.693L550.875 345.815H550.239L548.42 341.394H548.364V345.815H547.705V339.997ZM556.015 345.917C555.738 345.917 555.487 345.865 555.262 345.761C555.037 345.655 554.858 345.502 554.725 345.304C554.593 345.103 554.526 344.86 554.526 344.576C554.526 344.326 554.576 344.124 554.674 343.968C554.772 343.811 554.904 343.688 555.069 343.599C555.234 343.51 555.415 343.444 555.614 343.4C555.815 343.355 556.017 343.319 556.219 343.292C556.485 343.258 556.7 343.233 556.864 343.216C557.031 343.197 557.152 343.165 557.228 343.122C557.306 343.078 557.344 343.002 557.344 342.894V342.872C557.344 342.591 557.268 342.374 557.114 342.218C556.963 342.063 556.733 341.985 556.424 341.985C556.104 341.985 555.853 342.055 555.671 342.196C555.489 342.336 555.362 342.485 555.288 342.644L554.651 342.417C554.765 342.152 554.916 341.946 555.106 341.798C555.297 341.648 555.505 341.544 555.731 341.485C555.958 341.425 556.182 341.394 556.401 341.394C556.541 341.394 556.702 341.412 556.884 341.446C557.068 341.478 557.245 341.545 557.415 341.647C557.588 341.75 557.731 341.904 557.844 342.11C557.958 342.317 558.015 342.593 558.015 342.94V345.815H557.344V345.224H557.31C557.265 345.319 557.189 345.42 557.083 345.528C556.977 345.636 556.836 345.728 556.66 345.804C556.484 345.879 556.269 345.917 556.015 345.917ZM556.117 345.315C556.382 345.315 556.606 345.263 556.788 345.159C556.971 345.055 557.11 344.92 557.202 344.755C557.297 344.591 557.344 344.417 557.344 344.235V343.622C557.316 343.656 557.254 343.687 557.157 343.716C557.062 343.742 556.952 343.766 556.827 343.787C556.704 343.805 556.584 343.823 556.467 343.838C556.351 343.851 556.257 343.862 556.185 343.872C556.011 343.894 555.848 343.931 555.697 343.983C555.547 344.032 555.426 344.107 555.333 344.207C555.242 344.305 555.197 344.44 555.197 344.61C555.197 344.843 555.283 345.019 555.455 345.139C555.629 345.256 555.85 345.315 556.117 345.315ZM559.514 347.451C559.401 347.451 559.299 347.442 559.21 347.423C559.121 347.406 559.06 347.389 559.026 347.372L559.196 346.781C559.359 346.823 559.503 346.838 559.628 346.826C559.753 346.815 559.864 346.759 559.96 346.659C560.059 346.56 560.149 346.4 560.23 346.179L560.355 345.838L558.741 341.451H559.469L560.673 344.929H560.719L561.923 341.451H562.651L560.798 346.451C560.715 346.677 560.612 346.863 560.489 347.011C560.366 347.161 560.223 347.271 560.06 347.343C559.899 347.415 559.717 347.451 559.514 347.451Z" fill="#4E5A65"/>
<path d="M546 282.312C546 280.103 547.791 278.312 550 278.312H559C561.209 278.312 563 280.103 563 282.312V331.368H546V282.312Z" fill="#F3F5F9"/>
</g>
<defs>
<clipPath id="clip0_0_1">
<rect width="1440" height="4699" fill="white" transform="translate(-668 -2949)"/>
</clipPath>
</defs>
</svg>
