<svg width="180" height="54" viewBox="0 0 180 54" fill="none" xmlns="http://www.w3.org/2000/svg">
<rect width="180" height="54" fill="#E5E5E5"/>
<g clip-path="url(#clip0_263_387)">
<rect width="414" height="4498" transform="translate(-117 -3873)" fill="white"/>
<rect width="414" height="291.686" transform="translate(-117 -206)" fill="#796EFF"/>
<path d="M165.666 0.352224H14.3422C13.7906 0.352224 13.2456 0.352224 12.6955 0.354891C12.235 0.357557 11.7781 0.365304 11.3132 0.371824C10.3031 0.38236 9.29543 0.461126 8.29888 0.607437C7.30373 0.756934 6.33976 1.03878 5.43956 1.44344C4.54046 1.85152 3.71893 2.38178 3.00477 3.01498C2.28686 3.64641 1.68842 4.37625 1.23248 5.17644C0.775271 5.97504 0.458244 6.83081 0.292343 7.7142C0.124866 8.59647 0.0347448 9.48892 0.0227888 10.3835C0.00882972 10.7923 0.00735559 11.2025 0 11.6113V42.4304C0.00735559 42.8444 0.00882972 43.2454 0.0227888 43.6596C0.0347485 44.5541 0.12487 45.4465 0.292343 46.3288C0.457785 47.2127 0.774831 48.0689 1.23248 48.8678C1.68821 49.6654 2.28673 50.3923 3.00477 51.0202C3.71622 51.6562 4.53828 52.1869 5.43956 52.5918C6.33975 52.9976 7.30362 53.2811 8.29888 53.4329C9.2956 53.578 10.3032 53.6568 11.3132 53.6686C11.7781 53.6777 12.235 53.6829 12.6955 53.6829C13.2456 53.6856 13.7906 53.6856 14.3422 53.6856H165.666C166.207 53.6856 166.756 53.6856 167.296 53.6829C167.755 53.6829 168.225 53.6777 168.683 53.6686C169.691 53.6575 170.697 53.5787 171.692 53.4329C172.69 53.28 173.657 52.9966 174.562 52.5918C175.462 52.1866 176.284 51.656 176.995 51.0202C177.711 50.3899 178.311 49.6635 178.772 48.8678C179.226 48.0683 179.54 47.2122 179.703 46.3288C179.871 45.4464 179.964 44.5542 179.982 43.6596C179.988 43.2454 179.988 42.8444 179.988 42.4304C180 41.946 180 41.4642 180 40.972V13.0671C180 12.5788 180 12.0944 179.988 11.6113C179.988 11.2025 179.988 10.7923 179.982 10.3835C179.964 9.48879 179.871 8.59654 179.703 7.71414C179.54 6.83127 179.226 5.97556 178.772 5.17638C177.843 3.57249 176.371 2.26692 174.562 1.44332C173.657 1.03965 172.69 0.757878 171.692 0.607317C170.697 0.460361 169.691 0.381568 168.683 0.371637C168.225 0.365131 167.755 0.357317 167.296 0.354717C166.756 0.352051 166.207 0.352051 165.666 0.352051V0.352224Z" fill="white"/>
<path d="M12.5733 52.5229C12.1142 52.5229 11.6662 52.5177 11.2107 52.5086C10.2671 52.4977 9.32573 52.425 8.39427 52.2911C7.52573 52.1587 6.68435 51.9124 5.89788 51.5604C5.11862 51.2113 4.40787 50.7535 3.79286 50.2047C3.16895 49.6622 2.64952 49.0331 2.25515 48.3423C1.85643 47.6469 1.5805 46.9016 1.43695 46.1322C1.28194 45.3055 1.19807 44.4696 1.18607 43.6317C1.17652 43.3504 1.16401 42.414 1.16401 42.414V11.6068C1.16401 11.6068 1.17733 10.6847 1.18614 10.4138C1.19763 9.5772 1.28102 8.74259 1.43557 7.91719C1.57937 7.14572 1.85552 6.39823 2.25446 5.70059C2.64738 5.0102 3.16393 4.38062 3.78408 3.83627C4.40353 3.28674 5.11655 2.82662 5.89714 2.47269C6.6818 2.12179 7.52159 1.87726 8.38837 1.74728C9.32289 1.61201 10.2675 1.53887 11.2144 1.52849L12.574 1.51221H167.427L168.802 1.52914C169.741 1.53901 170.677 1.61149 171.603 1.74598C172.478 1.87758 173.327 2.12382 174.12 2.4766C175.684 3.18987 176.957 4.31834 177.759 5.70384C178.152 6.39667 178.424 7.13806 178.566 7.90286C178.722 8.73504 178.81 9.57621 178.828 10.4197C178.832 10.7973 178.832 11.203 178.832 11.6068C178.844 12.1069 178.844 12.5829 178.844 13.0628V40.9735C178.844 41.458 178.844 41.9308 178.832 42.4074C178.832 42.8411 178.832 43.2384 178.826 43.6473C178.809 44.4757 178.723 45.3019 178.569 46.1191C178.428 46.894 178.154 47.6452 177.755 48.3463C177.358 49.0296 176.841 49.6533 176.225 50.1943C175.609 50.7461 174.897 51.2065 174.116 51.5579C173.325 51.9126 172.477 52.1598 171.603 52.2911C170.671 52.4257 169.73 52.4984 168.786 52.5086C168.345 52.5177 167.883 52.5229 167.434 52.5229L165.801 52.5255L12.5733 52.5229Z" fill="white"/>
<path d="M43.7297 27.4198C43.744 26.3069 44.0396 25.2158 44.589 24.2478C45.1383 23.2799 45.9236 22.4666 46.8718 21.8837C46.2694 21.0235 45.4748 20.3156 44.5511 19.8162C43.6273 19.3168 42.5998 19.0397 41.5502 19.0068C39.3112 18.7718 37.1406 20.3466 35.9997 20.3466C34.8366 20.3466 33.08 19.0302 31.1883 19.0691C29.9648 19.1086 28.7723 19.4644 27.7271 20.1018C26.682 20.7392 25.8197 21.6365 25.2244 22.7062C22.6458 27.1708 24.5692 33.7322 27.0394 37.341C28.2752 39.1081 29.7196 41.0821 31.6095 41.0121C33.459 40.9354 34.1497 39.8328 36.3821 39.8328C38.5938 39.8328 39.2418 41.0121 41.1701 40.9676C43.1546 40.9354 44.4049 39.1926 45.5974 37.4087C46.4854 36.1496 47.1687 34.7579 47.622 33.2854C46.469 32.7977 45.4852 31.9815 44.793 30.9384C44.1008 29.8954 43.731 28.6716 43.7297 27.4198Z" fill="black"/>
<path d="M40.0875 16.6334C41.1695 15.3345 41.7026 13.6649 41.5735 11.9792C39.9204 12.1529 38.3934 12.943 37.2967 14.1921C36.7606 14.8023 36.3499 15.5122 36.0882 16.2812C35.8266 17.0502 35.719 17.8633 35.7718 18.6739C36.5987 18.6824 37.4167 18.5032 38.1642 18.1498C38.9118 17.7963 39.5694 17.2778 40.0875 16.6334Z" fill="black"/>
<path d="M67.1076 36.5384H60.7964L59.2807 41.0136H56.6076L62.5854 24.4563H65.3628L71.3406 41.0136H68.6219L67.1076 36.5384ZM61.45 34.4733H66.4527L63.9865 27.2102H63.9175L61.45 34.4733Z" fill="black"/>
<path d="M84.2508 34.9785C84.2508 38.7298 82.243 41.1399 79.213 41.1399C78.4455 41.1801 77.6822 41.0033 77.0105 40.6298C76.3387 40.2562 75.7858 39.7011 75.4149 39.0279H75.3575V45.0071H72.8797V28.942H75.2782V30.9498H75.3237C75.7117 30.2799 76.274 29.7276 76.9508 29.3518C77.6277 28.976 78.3937 28.7907 79.1675 28.8157C82.2312 28.8157 84.2508 31.2376 84.2508 34.9785ZM81.7039 34.9785C81.7039 32.5345 80.4409 30.9277 78.5138 30.9277C76.6206 30.9277 75.3472 32.5683 75.3472 34.9785C75.3472 37.4108 76.6206 39.0397 78.5138 39.0397C80.4409 39.0397 81.7039 37.4446 81.7039 34.9785Z" fill="black"/>
<path d="M97.5373 34.9785C97.5373 38.7298 95.5295 41.1399 92.4995 41.1399C91.732 41.1801 90.9686 41.0033 90.2969 40.6297C89.6252 40.2562 89.0722 39.7011 88.7013 39.0279H88.644V45.0071H86.1661V28.942H88.5646V30.9498H88.6101C88.9981 30.2799 89.5604 29.7276 90.2372 29.3518C90.9141 28.976 91.6801 28.7907 92.4539 28.8157C95.5178 28.8157 97.5373 31.2376 97.5373 34.9785ZM94.9904 34.9785C94.9904 32.5345 93.7274 30.9277 91.8003 30.9277C89.9071 30.9277 88.6336 32.5683 88.6336 34.9785C88.6336 37.4108 89.9071 39.0397 91.8003 39.0397C93.7274 39.0397 94.9904 37.4446 94.9904 34.9785H94.9904Z" fill="black"/>
<path d="M106.318 36.4003C106.502 38.0422 108.097 39.1203 110.277 39.1203C112.365 39.1203 113.868 38.0422 113.868 36.5617C113.868 35.2765 112.962 34.507 110.816 33.9797L108.67 33.4627C105.63 32.7284 104.218 31.3065 104.218 28.9992C104.218 26.1424 106.708 24.1802 110.243 24.1802C113.742 24.1802 116.14 26.1424 116.221 28.9992H113.719C113.57 27.3468 112.204 26.3495 110.208 26.3495C108.212 26.3495 106.846 27.3586 106.846 28.8273C106.846 29.9979 107.718 30.6867 109.852 31.214L111.677 31.6619C115.074 32.4653 116.485 33.8299 116.485 36.2517C116.485 39.3494 114.018 41.2895 110.093 41.2895C106.421 41.2895 103.942 39.395 103.782 36.4002L106.318 36.4003Z" fill="black"/>
<path d="M121.833 26.0852V28.942H124.128V30.9042H121.833V37.5592C121.833 38.593 122.292 39.0748 123.302 39.0748C123.574 39.07 123.846 39.0509 124.117 39.0175V40.968C123.663 41.0528 123.202 41.0911 122.74 41.0826C120.296 41.0826 119.343 40.1646 119.343 37.8234V30.9042H117.588V28.942H119.343V26.0852H121.833Z" fill="black"/>
<path d="M125.458 34.9786C125.458 31.1804 127.695 28.7937 131.183 28.7937C134.683 28.7937 136.91 31.1804 136.91 34.9786C136.91 38.7872 134.695 41.1635 131.183 41.1635C127.673 41.1635 125.458 38.7872 125.458 34.9786ZM134.385 34.9786C134.385 32.3731 133.191 30.8354 131.183 30.8354C129.175 30.8354 127.983 32.3848 127.983 34.9786C127.983 37.5945 129.175 39.1205 131.183 39.1205C133.191 39.1205 134.385 37.5945 134.385 34.9786H134.385Z" fill="black"/>
<path d="M138.953 28.9419H141.316V30.9966H141.373C141.533 30.3548 141.909 29.7877 142.438 29.3906C142.967 28.9934 143.616 28.7903 144.277 28.8156C144.562 28.8146 144.847 28.8456 145.126 28.908V31.2257C144.765 31.1156 144.389 31.065 144.013 31.076C143.653 31.0614 143.294 31.1249 142.961 31.262C142.627 31.3992 142.328 31.6069 142.083 31.8707C141.837 32.1346 141.652 32.4484 141.539 32.7906C141.427 33.1329 141.39 33.4954 141.43 33.8533V41.0135H138.953L138.953 28.9419Z" fill="black"/>
<path d="M156.55 37.4682C156.217 39.6596 154.083 41.1635 151.352 41.1635C147.841 41.1635 145.661 38.8106 145.661 35.0359C145.661 31.2494 147.852 28.7937 151.248 28.7937C154.588 28.7937 156.688 31.088 156.688 34.7481V35.5971H148.162V35.7468C148.123 36.1911 148.178 36.6386 148.325 37.0598C148.472 37.4809 148.707 37.8659 149.014 38.1893C149.321 38.5127 149.694 38.7671 150.107 38.9355C150.52 39.1039 150.964 39.1825 151.41 39.1661C151.995 39.221 152.583 39.0853 153.085 38.7794C153.587 38.4735 153.977 38.0136 154.197 37.4682L156.55 37.4682ZM148.174 33.8653H154.209C154.231 33.4659 154.171 33.0661 154.031 32.6912C153.892 32.3162 153.676 31.9742 153.398 31.6865C153.12 31.3988 152.786 31.1717 152.416 31.0194C152.046 30.8671 151.648 30.7929 151.248 30.8015C150.845 30.7991 150.445 30.8766 150.071 31.0296C149.698 31.1826 149.358 31.408 149.073 31.6929C148.787 31.9777 148.56 32.3164 148.406 32.6892C148.252 33.0621 148.173 33.4618 148.174 33.8653V33.8653Z" fill="black"/>
<path d="M61.1394 11.9936C61.6589 11.9564 62.1802 12.0348 62.6657 12.2234C63.1512 12.412 63.5887 12.706 63.9469 13.0841C64.305 13.4623 64.5747 13.9152 64.7366 14.4103C64.8984 14.9053 64.9484 15.4301 64.8829 15.9468C64.8829 18.4884 63.5092 19.9494 61.1394 19.9494H58.2657V11.9936H61.1394ZM59.5014 18.8243H61.0014C61.3726 18.8465 61.7441 18.7856 62.0888 18.6462C62.4335 18.5067 62.7428 18.2921 62.9941 18.018C63.2455 17.7439 63.4325 17.4172 63.5417 17.0617C63.6508 16.7062 63.6793 16.3309 63.6251 15.963C63.6754 15.5965 63.644 15.2235 63.5332 14.8706C63.4223 14.5177 63.2348 14.1937 62.9841 13.9218C62.7333 13.6499 62.4255 13.4368 62.0828 13.2979C61.74 13.1589 61.3707 13.0974 61.0014 13.1179H59.5014V18.8243Z" fill="black"/>
<path d="M66.2787 16.9445C66.241 16.55 66.2861 16.1519 66.4113 15.7758C66.5364 15.3997 66.7387 15.0539 67.0053 14.7606C67.2719 14.4673 67.5968 14.2329 67.9593 14.0726C68.3218 13.9122 68.7138 13.8293 69.1101 13.8293C69.5065 13.8293 69.8985 13.9122 70.2609 14.0726C70.6234 14.2329 70.9483 14.4673 71.2149 14.7606C71.4815 15.0539 71.6839 15.3997 71.809 15.7758C71.9341 16.1519 71.9792 16.55 71.9415 16.9445C71.98 17.3395 71.9354 17.7381 71.8106 18.1148C71.6858 18.4915 71.4836 18.8379 71.2169 19.1318C70.9502 19.4257 70.6251 19.6606 70.2622 19.8213C69.8994 19.982 69.507 20.065 69.1101 20.065C68.7133 20.065 68.3208 19.982 67.958 19.8213C67.5952 19.6606 67.27 19.4257 67.0033 19.1318C66.7367 18.8379 66.5345 18.4915 66.4097 18.1148C66.2849 17.7381 66.2403 17.3395 66.2787 16.9445ZM70.7227 16.9445C70.7227 15.6431 70.1381 14.882 69.1121 14.882C68.0821 14.882 67.5027 15.6431 67.5027 16.9445C67.5027 18.2564 68.0822 19.0116 69.1121 19.0116C70.1381 19.0116 70.7228 18.2512 70.7228 16.9445H70.7227Z" fill="black"/>
<path d="M79.4689 19.9492H78.2397L76.9988 15.5273H76.9051L75.6694 19.9492H74.4519L72.797 13.9453H73.9988L75.0743 18.5266H75.1629L76.3973 13.9453H77.534L78.7683 18.5266H78.8621L79.9324 13.9453H81.1173L79.4689 19.9492Z" fill="black"/>
<path d="M82.5093 13.9453H83.6499V14.8991H83.7384C83.8886 14.5565 84.142 14.2693 84.4631 14.0776C84.7843 13.8859 85.1573 13.7991 85.5301 13.8294C85.8222 13.8074 86.1156 13.8515 86.3883 13.9583C86.6611 14.0651 86.9064 14.2319 87.106 14.4463C87.3056 14.6608 87.4543 14.9174 87.5413 15.1972C87.6282 15.4769 87.6511 15.7727 87.6082 16.0625V19.9491H86.4233V16.36C86.4233 15.3952 86.004 14.9153 85.1277 14.9153C84.9294 14.9061 84.7314 14.9399 84.5473 15.0143C84.3632 15.0887 84.1974 15.2021 84.0613 15.3466C83.9251 15.4911 83.8218 15.6634 83.7584 15.8516C83.6951 16.0397 83.6731 16.2394 83.6941 16.4368V19.9492H82.5092L82.5093 13.9453Z" fill="black"/>
<path d="M89.4962 11.6016H90.6811V19.9492H89.4962V11.6016Z" fill="black"/>
<path d="M92.3282 16.9446C92.2905 16.55 92.3357 16.1519 92.4608 15.7758C92.586 15.3997 92.7884 15.0539 93.055 14.7606C93.3216 14.4673 93.6466 14.2329 94.0091 14.0726C94.3716 13.9122 94.7636 13.8293 95.16 13.8293C95.5563 13.8293 95.9483 13.9122 96.3108 14.0726C96.6733 14.2329 96.9983 14.4673 97.2649 14.7606C97.5315 15.0539 97.7339 15.3997 97.8591 15.7758C97.9842 16.1519 98.0294 16.55 97.9917 16.9446C98.0301 17.3396 97.9854 17.7383 97.8606 18.115C97.7358 18.4916 97.5335 18.8381 97.2668 19.1319C97.0002 19.4258 96.6749 19.6607 96.3121 19.8214C95.9492 19.9821 95.5568 20.0651 95.16 20.0651C94.7631 20.0651 94.3707 19.9821 94.0078 19.8214C93.645 19.6607 93.3197 19.4258 93.0531 19.1319C92.7864 18.8381 92.5841 18.4916 92.4593 18.115C92.3345 17.7383 92.2898 17.3396 92.3282 16.9446ZM96.7722 16.9446C96.7722 15.6432 96.1876 14.8821 95.1616 14.8821C94.1316 14.8821 93.5522 15.6432 93.5522 16.9446C93.5522 18.2565 94.1317 19.0117 95.1616 19.0117C96.1876 19.0117 96.7723 18.2513 96.7723 16.9446H96.7722Z" fill="black"/>
<path d="M99.239 18.2512C99.239 17.1705 100.044 16.5474 101.472 16.4589L103.098 16.3651V15.8469C103.098 15.2128 102.679 14.8547 101.869 14.8547C101.208 14.8547 100.749 15.0976 100.618 15.5221H99.4708C99.5919 14.4908 100.562 13.8293 101.924 13.8293C103.429 13.8293 104.278 14.5787 104.278 15.8469V19.9491H103.137V19.1054H103.044C102.853 19.408 102.586 19.6548 102.269 19.8204C101.953 19.986 101.597 20.0646 101.24 20.0481C100.988 20.0743 100.734 20.0474 100.493 19.9691C100.252 19.8909 100.03 19.7629 99.841 19.5937C99.6525 19.4244 99.5015 19.2174 99.3978 18.9862C99.2941 18.755 99.24 18.5046 99.239 18.2512ZM103.098 17.7382V17.2362L101.632 17.33C100.805 17.3853 100.43 17.6666 100.43 18.1959C100.43 18.7362 100.899 19.0507 101.544 19.0507C101.733 19.0698 101.923 19.0507 102.105 18.9946C102.286 18.9385 102.454 18.8465 102.599 18.724C102.744 18.6016 102.863 18.4512 102.949 18.2818C103.035 18.1125 103.086 17.9276 103.098 17.7382Z" fill="black"/>
<path d="M105.835 16.9447C105.835 15.0475 106.811 13.8457 108.328 13.8457C108.703 13.8284 109.075 13.9183 109.401 14.1048C109.727 14.2914 109.993 14.5668 110.169 14.8991H110.257V11.6016H111.442V19.9492H110.307V19.0006H110.213C110.024 19.3306 109.749 19.6027 109.416 19.7873C109.084 19.972 108.708 20.0622 108.328 20.0482C106.8 20.0482 105.835 18.8464 105.835 16.9447ZM107.059 16.9447C107.059 18.2181 107.66 18.9844 108.664 18.9844C109.662 18.9844 110.279 18.2071 110.279 16.9499C110.279 15.6986 109.656 14.9102 108.664 14.9102C107.666 14.9102 107.059 15.6817 107.059 16.9447H107.059Z" fill="black"/>
<path d="M116.345 16.9445C116.307 16.55 116.352 16.1519 116.477 15.7758C116.602 15.3997 116.804 15.0539 117.071 14.7606C117.338 14.4673 117.663 14.2329 118.025 14.0726C118.388 13.9122 118.78 13.8293 119.176 13.8293C119.572 13.8293 119.964 13.9122 120.327 14.0726C120.689 14.2329 121.014 14.4673 121.281 14.7606C121.547 15.0539 121.75 15.3997 121.875 15.7758C122 16.1519 122.045 16.55 122.007 16.9445C122.046 17.3395 122.001 17.7381 121.876 18.1148C121.752 18.4915 121.549 18.8379 121.283 19.1318C121.016 19.4257 120.691 19.6606 120.328 19.8213C119.965 19.982 119.573 20.065 119.176 20.065C118.779 20.065 118.387 19.982 118.024 19.8213C117.661 19.6606 117.336 19.4257 117.069 19.1318C116.802 18.8379 116.6 18.4915 116.475 18.1148C116.351 17.7381 116.306 17.3395 116.345 16.9445ZM120.789 16.9445C120.789 15.6431 120.204 14.882 119.178 14.882C118.148 14.882 117.569 15.6431 117.569 16.9445C117.569 18.2564 118.148 19.0116 119.178 19.0116C120.204 19.0116 120.789 18.2512 120.789 16.9445Z" fill="black"/>
<path d="M123.597 13.9453H124.738V14.8991H124.826C124.976 14.5565 125.23 14.2693 125.551 14.0776C125.872 13.8859 126.245 13.7991 126.618 13.8294C126.91 13.8074 127.203 13.8515 127.476 13.9583C127.749 14.0651 127.994 14.2319 128.194 14.4463C128.393 14.6608 128.542 14.9174 128.629 15.1972C128.716 15.4769 128.739 15.7727 128.696 16.0625V19.9491H127.511V16.36C127.511 15.3952 127.092 14.9153 126.216 14.9153C126.017 14.9061 125.819 14.9399 125.635 15.0143C125.451 15.0887 125.285 15.2021 125.149 15.3466C125.013 15.4911 124.91 15.6634 124.846 15.8516C124.783 16.0397 124.761 16.2394 124.782 16.4368V19.9492H123.597V13.9453Z" fill="black"/>
<path d="M135.391 12.4507V13.9728H136.692V14.9709H135.391V18.0581C135.391 18.687 135.65 18.9624 136.24 18.9624C136.391 18.9619 136.542 18.9528 136.692 18.9351V19.922C136.479 19.9601 136.264 19.9803 136.048 19.9826C134.73 19.9826 134.205 19.519 134.205 18.3615V14.9708H133.252V13.9728H134.205V12.4507H135.391Z" fill="black"/>
<path d="M138.311 11.6016H139.485V14.9102H139.579C139.736 14.5644 139.997 14.2756 140.324 14.0832C140.652 13.8907 141.031 13.8039 141.41 13.8346C141.7 13.8188 141.991 13.8673 142.26 13.9767C142.53 14.0861 142.772 14.2537 142.97 14.4675C143.167 14.6813 143.315 14.936 143.403 15.2135C143.491 15.491 143.516 15.7845 143.477 16.0729V19.9492H142.291V16.3652C142.291 15.4062 141.844 14.9206 141.007 14.9206C140.804 14.9039 140.599 14.9319 140.407 15.0026C140.215 15.0733 140.041 15.1851 139.897 15.3301C139.753 15.4751 139.643 15.6498 139.573 15.8419C139.504 16.0341 139.477 16.2392 139.496 16.4427V19.9492H138.311L138.311 11.6016Z" fill="black"/>
<path d="M150.386 18.3279C150.225 18.8766 149.876 19.3513 149.401 19.6688C148.925 19.9863 148.353 20.1265 147.785 20.0649C147.389 20.0753 146.996 19.9995 146.633 19.8428C146.269 19.6861 145.944 19.4522 145.681 19.1574C145.417 18.8625 145.22 18.5138 145.105 18.1354C144.989 17.7569 144.957 17.3579 145.011 16.9659C144.959 16.5727 144.991 16.1728 145.106 15.7933C145.222 15.4137 145.417 15.0633 145.68 14.7659C145.942 14.4685 146.265 14.2309 146.628 14.0693C146.99 13.9077 147.383 13.8258 147.779 13.8292C149.45 13.8292 150.458 14.9705 150.458 16.8559V17.2693H146.218V17.3357C146.2 17.556 146.227 17.7778 146.3 17.9868C146.372 18.1958 146.487 18.3874 146.637 18.5494C146.788 18.7113 146.971 18.84 147.174 18.9272C147.377 19.0144 147.596 19.0582 147.817 19.0557C148.101 19.0897 148.388 19.0387 148.642 18.9091C148.896 18.7795 149.106 18.5772 149.246 18.3279L150.386 18.3279ZM146.218 16.393H149.251C149.266 16.1915 149.238 15.9891 149.17 15.7988C149.102 15.6085 148.995 15.4345 148.856 15.2881C148.717 15.1416 148.549 15.0258 148.362 14.9483C148.176 14.8707 147.975 14.833 147.773 14.8377C147.568 14.8351 147.365 14.8736 147.175 14.9508C146.985 15.0281 146.812 15.1426 146.668 15.2875C146.523 15.4325 146.408 15.605 146.331 15.7948C146.254 15.9847 146.216 16.1881 146.218 16.393H146.218Z" fill="black"/>
</g>
<defs>
<clipPath id="clip0_263_387">
<rect width="414" height="4498" fill="white" transform="translate(-117 -3873)"/>
</clipPath>
</defs>
</svg>
