<svg width="180" height="54" viewBox="0 0 180 54" fill="none" xmlns="http://www.w3.org/2000/svg">
<path d="M165.666 0.333669H14.3422C13.7906 0.333669 13.2456 0.333669 12.6955 0.336336C12.235 0.339003 11.7781 0.346749 11.3132 0.353269C10.3031 0.363805 9.29543 0.442571 8.29888 0.588883C7.30373 0.73838 6.33976 1.02022 5.43956 1.42488C4.54046 1.83297 3.71893 2.36323 3.00477 2.99643C2.28686 3.62785 1.68842 4.35769 1.23248 5.15788C0.775271 5.95648 0.458244 6.81225 0.292343 7.69564C0.124866 8.57792 0.0347448 9.47036 0.0227888 10.365C0.00882972 10.7738 0.00735559 11.1839 0 11.5928V42.4118C0.00735559 42.8258 0.00882972 43.2269 0.0227888 43.641C0.0347485 44.5356 0.12487 45.428 0.292343 46.3102C0.457785 47.1941 0.774831 48.0504 1.23248 48.8493C1.68821 49.6469 2.28673 50.3738 3.00477 51.0017C3.71622 51.6377 4.53828 52.1683 5.43956 52.5733C6.33975 52.979 7.30362 53.2625 8.29888 53.4143C9.2956 53.5595 10.3032 53.6383 11.3132 53.6501C11.7781 53.6591 12.235 53.6643 12.6955 53.6643C13.2456 53.667 13.7906 53.667 14.3422 53.667H165.666C166.207 53.667 166.756 53.667 167.296 53.6643C167.755 53.6643 168.225 53.6591 168.683 53.6501C169.691 53.6389 170.697 53.5601 171.692 53.4143C172.69 53.2615 173.657 52.978 174.562 52.5733C175.462 52.1681 176.284 51.6375 176.995 51.0017C177.711 50.3713 178.311 49.6449 178.772 48.8493C179.226 48.0498 179.54 47.1936 179.703 46.3102C179.871 45.4279 179.964 44.5356 179.982 43.641C179.988 43.2269 179.988 42.8258 179.988 42.4118C180 41.9274 180 41.4457 180 40.9534V13.0485C180 12.5602 180 12.0759 179.988 11.5928C179.988 11.1839 179.988 10.7738 179.982 10.3649C179.964 9.47023 179.871 8.57798 179.703 7.69559C179.54 6.81271 179.226 5.95701 178.772 5.15783C177.843 3.55393 176.371 2.24837 174.562 1.42476C173.657 1.02109 172.69 0.739323 171.692 0.588763C170.697 0.441806 169.691 0.363013 168.683 0.353083C168.225 0.346576 167.755 0.338763 167.296 0.336163C166.756 0.333496 166.207 0.333496 165.666 0.333496V0.333669Z" fill="#A6A6A6"/>
<path d="M12.5733 52.5046C12.1142 52.5046 11.6662 52.4994 11.2107 52.4903C10.2671 52.4794 9.32573 52.4067 8.39427 52.2728C7.52573 52.1404 6.68435 51.8941 5.89788 51.5421C5.11862 51.193 4.40788 50.7352 3.79287 50.1863C3.16896 49.6439 2.64953 49.0148 2.25516 48.324C1.85644 47.6286 1.5805 46.8833 1.43696 46.1139C1.28195 45.2872 1.19808 44.4513 1.18608 43.6134C1.17652 43.3321 1.16402 42.3956 1.16402 42.3956V11.5885C1.16402 11.5885 1.17734 10.6664 1.18615 10.3955C1.19764 9.55889 1.28102 8.72428 1.43557 7.89888C1.57938 7.12741 1.85553 6.37992 2.25446 5.68228C2.64739 4.99189 3.16394 4.36231 3.78409 3.81796C4.40354 3.26843 5.11656 2.80831 5.89714 2.45438C6.68181 2.10348 7.5216 1.85895 8.38838 1.72897C9.3229 1.5937 10.2676 1.52056 11.2144 1.51018L12.574 1.4939H167.427L168.802 1.51083C169.741 1.5207 170.677 1.59318 171.603 1.72767C172.478 1.85927 173.327 2.10551 174.12 2.45828C175.684 3.17156 176.957 4.30003 177.759 5.68553C178.152 6.37836 178.424 7.11975 178.566 7.88455C178.722 8.71673 178.81 9.5579 178.828 10.4014C178.832 10.779 178.832 11.1847 178.832 11.5885C178.844 12.0886 178.844 12.5646 178.844 13.0445V40.9552C178.844 41.4397 178.844 41.9125 178.832 42.3891C178.832 42.8228 178.832 43.2201 178.826 43.629C178.809 44.4574 178.723 45.2835 178.569 46.1008C178.428 46.8757 178.154 47.6269 177.755 48.328C177.358 49.0113 176.841 49.635 176.225 50.1759C175.609 50.7278 174.897 51.1882 174.116 51.5396C173.325 51.8943 172.477 52.1415 171.603 52.2728C170.671 52.4074 169.73 52.4801 168.786 52.4903C168.345 52.4994 167.883 52.5046 167.434 52.5046L165.801 52.5072L12.5733 52.5046Z" fill="black"/>
<path d="M43.7297 27.401C43.7441 26.2881 44.0397 25.197 44.5891 24.229C45.1384 23.2611 45.9237 22.4478 46.8718 21.8649C46.2695 21.0047 45.4749 20.2968 44.5511 19.7974C43.6274 19.298 42.5999 19.0209 41.5503 18.988C39.3113 18.753 37.1407 20.3278 35.9998 20.3278C34.8367 20.3278 33.0801 19.0114 31.1884 19.0503C29.9649 19.0898 28.7724 19.4456 27.7272 20.083C26.682 20.7204 25.8198 21.6177 25.2245 22.6874C22.6459 27.152 24.5693 33.7134 27.0395 37.3222C28.2753 39.0893 29.7197 41.0633 31.6096 40.9933C33.459 40.9166 34.1498 39.814 36.3822 39.814C38.5938 39.814 39.2419 40.9933 41.1702 40.9488C43.1547 40.9166 44.405 39.1738 45.5975 37.3899C46.4855 36.1308 47.1688 34.7391 47.6221 33.2666C46.4691 32.7789 45.4852 31.9627 44.7931 30.9196C44.1009 29.8766 43.7311 28.6528 43.7297 27.401Z" fill="white"/>
<path d="M40.0876 16.6146C41.1696 15.3157 41.7027 13.6461 41.5736 11.9604C39.9205 12.1341 38.3935 12.9242 37.2968 14.1733C36.7606 14.7835 36.35 15.4934 36.0883 16.2624C35.8267 17.0314 35.7191 17.8445 35.7719 18.6551C36.5987 18.6636 37.4167 18.4844 38.1643 18.131C38.9118 17.7775 39.5694 17.259 40.0876 16.6146Z" fill="white"/>
<path d="M67.1076 36.5198H60.7964L59.2808 40.9951H56.6076L62.5855 24.4377H65.3628L71.3407 40.9951H68.6219L67.1076 36.5198ZM61.45 34.4547H66.4527L63.9866 27.1917H63.9175L61.45 34.4547Z" fill="white"/>
<path d="M84.2508 34.9599C84.2508 38.7112 82.243 41.1214 79.2131 41.1214C78.4455 41.1615 77.6822 40.9847 77.0105 40.6112C76.3388 40.2377 75.7858 39.6826 75.4149 39.0094H75.3576V44.9885H72.8797V28.9235H75.2782V30.9313H75.3238C75.7117 30.2613 76.274 29.7091 76.9508 29.3333C77.6277 28.9575 78.3937 28.7722 79.1675 28.7971C82.2313 28.7972 84.2508 31.219 84.2508 34.9599ZM81.704 34.9599C81.704 32.5159 80.4409 30.9091 78.5138 30.9091C76.6206 30.9091 75.3472 32.5498 75.3472 34.9599C75.3472 37.3922 76.6206 39.0211 78.5138 39.0211C80.4409 39.0211 81.704 37.4261 81.704 34.9599Z" fill="white"/>
<path d="M97.5373 34.9599C97.5373 38.7112 95.5295 41.1214 92.4995 41.1214C91.732 41.1615 90.9686 40.9847 90.2969 40.6112C89.6252 40.2377 89.0722 39.6825 88.7013 39.0094H88.644V44.9885H86.1661V28.9234H88.5646V30.9313H88.6101C88.9981 30.2613 89.5604 29.7091 90.2372 29.3333C90.9141 28.9575 91.6801 28.7722 92.4539 28.7971C95.5177 28.7971 97.5373 31.219 97.5373 34.9599ZM94.9904 34.9599C94.9904 32.5159 93.7274 30.9091 91.8003 30.9091C89.9071 30.9091 88.6336 32.5497 88.6336 34.9599C88.6336 37.3922 89.9071 39.0211 91.8003 39.0211C93.7274 39.0211 94.9904 37.4261 94.9904 34.9599H94.9904Z" fill="white"/>
<path d="M106.319 36.3817C106.502 38.0237 108.097 39.1017 110.277 39.1017C112.365 39.1017 113.868 38.0236 113.868 36.5431C113.868 35.258 112.962 34.4885 110.816 33.9611L108.67 33.4442C105.63 32.7098 104.218 31.2879 104.218 28.9806C104.218 26.1239 106.708 24.1616 110.243 24.1616C113.742 24.1616 116.14 26.1239 116.221 28.9806H113.72C113.57 27.3283 112.204 26.3309 110.208 26.3309C108.212 26.3309 106.846 27.34 106.846 28.8088C106.846 29.9793 107.718 30.6681 109.852 31.1954L111.677 31.6434C115.074 32.4467 116.485 33.8114 116.485 36.2332C116.485 39.3308 114.018 41.271 110.093 41.271C106.421 41.271 103.942 39.3764 103.782 36.3816L106.319 36.3817Z" fill="white"/>
<path d="M121.833 26.0669V28.9237H124.128V30.8859H121.833V37.5409C121.833 38.5747 122.292 39.0565 123.302 39.0565C123.574 39.0517 123.846 39.0326 124.117 38.9991V40.9497C123.663 41.0344 123.202 41.0728 122.74 41.0643C120.296 41.0643 119.343 40.1463 119.343 37.8051V30.8859H117.588V28.9237H119.343V26.0669H121.833Z" fill="white"/>
<path d="M125.458 34.96C125.458 31.1619 127.695 28.7751 131.183 28.7751C134.683 28.7751 136.91 31.1618 136.91 34.96C136.91 38.7686 134.695 41.1449 131.183 41.1449C127.673 41.1449 125.458 38.7686 125.458 34.96ZM134.385 34.96C134.385 32.3546 133.191 30.8168 131.183 30.8168C129.175 30.8168 127.983 32.3663 127.983 34.96C127.983 37.5759 129.175 39.102 131.183 39.102C133.191 39.102 134.385 37.5759 134.385 34.96H134.385Z" fill="white"/>
<path d="M138.953 28.9233H141.316V30.978H141.373C141.533 30.3363 141.909 29.7692 142.438 29.372C142.967 28.9748 143.616 28.7718 144.277 28.797C144.562 28.796 144.847 28.827 145.126 28.8895V31.2072C144.765 31.097 144.389 31.0464 144.013 31.0574C143.653 31.0428 143.294 31.1063 142.961 31.2435C142.627 31.3807 142.328 31.5883 142.083 31.8522C141.837 32.116 141.652 32.4298 141.54 32.7721C141.427 33.1143 141.39 33.4768 141.431 33.8348V40.9949H138.953L138.953 28.9233Z" fill="white"/>
<path d="M156.55 37.4496C156.217 39.641 154.083 41.1449 151.352 41.1449C147.841 41.1449 145.661 38.7921 145.661 35.0173C145.661 31.2309 147.852 28.7751 151.248 28.7751C154.588 28.7751 156.688 31.0694 156.688 34.7296V35.5785H148.162V35.7283C148.123 36.1725 148.179 36.6201 148.325 37.0412C148.472 37.4623 148.707 37.8474 149.014 38.1708C149.321 38.4942 149.694 38.7485 150.107 38.9169C150.52 39.0853 150.964 39.1639 151.41 39.1475C151.995 39.2024 152.583 39.0668 153.085 38.7609C153.587 38.4549 153.978 37.9951 154.197 37.4496L156.55 37.4496ZM148.174 33.8468H154.209C154.231 33.4473 154.171 33.0476 154.031 32.6726C153.892 32.2977 153.676 31.9556 153.398 31.6679C153.12 31.3802 152.786 31.1531 152.416 31.0008C152.046 30.8485 151.648 30.7744 151.248 30.783C150.845 30.7806 150.445 30.8581 150.071 31.0111C149.698 31.1641 149.359 31.3895 149.073 31.6743C148.787 31.9592 148.56 32.2978 148.406 32.6707C148.252 33.0435 148.173 33.4433 148.174 33.8468V33.8468Z" fill="white"/>
<path d="M61.1395 11.9751C61.659 11.9378 62.1803 12.0163 62.6657 12.2049C63.1512 12.3934 63.5888 12.6874 63.9469 13.0656C64.305 13.4438 64.5748 13.8967 64.7366 14.3917C64.8985 14.8867 64.9485 15.4115 64.883 15.9282C64.883 18.4699 63.5093 19.9309 61.1395 19.9309H58.2658V11.9751H61.1395ZM59.5015 18.8058H61.0015C61.3727 18.8279 61.7442 18.7671 62.0889 18.6276C62.4336 18.4881 62.7429 18.2735 62.9942 17.9994C63.2455 17.7253 63.4326 17.3987 63.5417 17.0432C63.6509 16.6877 63.6794 16.3123 63.6252 15.9444C63.6754 15.578 63.644 15.205 63.5332 14.8521C63.4224 14.4992 63.2349 14.1752 62.9841 13.9033C62.7334 13.6314 62.4256 13.4183 62.0828 13.2793C61.74 13.1403 61.3708 13.0789 61.0015 13.0994H59.5015V18.8058Z" fill="white"/>
<path d="M66.2788 16.9264C66.2411 16.5319 66.2862 16.1338 66.4113 15.7577C66.5364 15.3816 66.7388 15.0358 67.0054 14.7425C67.272 14.4492 67.5969 14.2149 67.9594 14.0545C68.3219 13.8941 68.7138 13.8113 69.1102 13.8113C69.5066 13.8113 69.8985 13.8941 70.261 14.0545C70.6235 14.2149 70.9484 14.4492 71.215 14.7425C71.4816 15.0358 71.6839 15.3816 71.8091 15.7577C71.9342 16.1338 71.9793 16.5319 71.9416 16.9264C71.98 17.3214 71.9354 17.7201 71.8106 18.0968C71.6859 18.4735 71.4836 18.8199 71.217 19.1138C70.9503 19.4076 70.6251 19.6425 70.2623 19.8032C69.8995 19.9639 69.507 20.0469 69.1102 20.0469C68.7134 20.0469 68.3209 19.9639 67.9581 19.8032C67.5953 19.6425 67.2701 19.4076 67.0034 19.1138C66.7367 18.8199 66.5345 18.4735 66.4097 18.0968C66.2849 17.7201 66.2404 17.3214 66.2788 16.9264ZM70.7228 16.9264C70.7228 15.625 70.1382 14.864 69.1121 14.864C68.0822 14.864 67.5028 15.625 67.5028 16.9265C67.5028 18.2383 68.0822 18.9935 69.1121 18.9935C70.1382 18.9935 70.7228 18.2331 70.7228 16.9264H70.7228Z" fill="white"/>
<path d="M79.4689 19.9307H78.2398L76.9989 15.5088H76.9051L75.6695 19.9307H74.452L72.7971 13.9268H73.9989L75.0744 18.5081H75.1629L76.3973 13.9268H77.534L78.7684 18.5081H78.8622L79.9325 13.9268H81.1174L79.4689 19.9307Z" fill="white"/>
<path d="M82.5093 13.9267H83.6499V14.8805H83.7384C83.8886 14.5379 84.142 14.2508 84.4631 14.059C84.7843 13.8673 85.1573 13.7805 85.5301 13.8108C85.8222 13.7889 86.1156 13.8329 86.3884 13.9397C86.6612 14.0465 86.9064 14.2133 87.106 14.4278C87.3056 14.6422 87.4544 14.8989 87.5413 15.1786C87.6282 15.4584 87.6511 15.7541 87.6082 16.0439V19.9306H86.4233V16.3415C86.4233 15.3766 86.0041 14.8968 85.1278 14.8968C84.9294 14.8876 84.7314 14.9213 84.5473 14.9957C84.3633 15.0702 84.1975 15.1836 84.0613 15.3281C83.9251 15.4726 83.8218 15.6448 83.7585 15.833C83.6951 16.0212 83.6732 16.2208 83.6942 16.4183V19.9306H82.5093L82.5093 13.9267Z" fill="white"/>
<path d="M89.4963 11.583H90.6812V19.9307H89.4963V11.583Z" fill="white"/>
<path d="M92.3283 16.9266C92.2906 16.532 92.3357 16.1339 92.4609 15.7578C92.586 15.3817 92.7884 15.0359 93.055 14.7425C93.3216 14.4492 93.6466 14.2149 94.0091 14.0545C94.3716 13.8941 94.7636 13.8113 95.16 13.8113C95.5564 13.8113 95.9484 13.8941 96.3109 14.0545C96.6734 14.2149 96.9983 14.4492 97.265 14.7425C97.5316 15.0359 97.7339 15.3817 97.8591 15.7578C97.9842 16.1339 98.0294 16.532 97.9917 16.9266C98.0301 17.3215 97.9855 17.7202 97.8606 18.0969C97.7358 18.4736 97.5335 18.82 97.2669 19.1139C97.0002 19.4078 96.675 19.6426 96.3121 19.8033C95.9493 19.964 95.5568 20.047 95.16 20.047C94.7631 20.047 94.3707 19.964 94.0078 19.8033C93.645 19.6426 93.3198 19.4078 93.0531 19.1139C92.7864 18.82 92.5842 18.4736 92.4593 18.0969C92.3345 17.7202 92.2899 17.3215 92.3283 16.9266ZM96.7723 16.9266C96.7723 15.6251 96.1876 14.8641 95.1616 14.8641C94.1317 14.8641 93.5523 15.6251 93.5523 16.9266C93.5523 18.2384 94.1317 18.9936 95.1616 18.9936C96.1876 18.9936 96.7723 18.2332 96.7723 16.9266H96.7723Z" fill="white"/>
<path d="M99.2391 18.2331C99.2391 17.1524 100.044 16.5294 101.472 16.4408L103.098 16.3471V15.8289C103.098 15.1947 102.679 14.8367 101.869 14.8367C101.208 14.8367 100.75 15.0795 100.618 15.504H99.4709C99.592 14.4727 100.562 13.8113 101.924 13.8113C103.429 13.8113 104.278 14.5606 104.278 15.8289V19.9311H103.138V19.0873H103.044C102.853 19.39 102.586 19.6367 102.269 19.8023C101.953 19.9679 101.598 20.0465 101.24 20.03C100.988 20.0562 100.734 20.0293 100.493 19.951C100.252 19.8728 100.03 19.7449 99.8411 19.5756C99.6525 19.4063 99.5015 19.1994 99.3979 18.9682C99.2942 18.7369 99.2401 18.4865 99.2391 18.2331ZM103.098 17.7201V17.2182L101.632 17.3119C100.806 17.3673 100.43 17.6485 100.43 18.1778C100.43 18.7182 100.899 19.0326 101.544 19.0326C101.733 19.0517 101.923 19.0327 102.105 18.9765C102.286 18.9204 102.454 18.8284 102.599 18.7059C102.744 18.5835 102.863 18.4331 102.949 18.2637C103.035 18.0944 103.086 17.9095 103.098 17.7201Z" fill="white"/>
<path d="M105.835 16.9261C105.835 15.029 106.811 13.8272 108.328 13.8272C108.703 13.8099 109.075 13.8997 109.401 14.0863C109.727 14.2728 109.994 14.5483 110.169 14.8805H110.257V11.583H111.442V19.9307H110.307V18.9821H110.213C110.024 19.3121 109.749 19.5841 109.416 19.7688C109.084 19.9534 108.708 20.0436 108.328 20.0296C106.8 20.0297 105.835 18.8278 105.835 16.9261ZM107.059 16.9261C107.059 18.1996 107.66 18.9658 108.664 18.9658C109.662 18.9658 110.28 18.1885 110.28 16.9313C110.28 15.68 109.656 14.8916 108.664 14.8916C107.666 14.8916 107.059 15.6631 107.059 16.9261H107.059Z" fill="white"/>
<path d="M116.345 16.9264C116.307 16.5319 116.352 16.1338 116.477 15.7577C116.602 15.3816 116.805 15.0358 117.071 14.7425C117.338 14.4492 117.663 14.2149 118.025 14.0545C118.388 13.8941 118.78 13.8113 119.176 13.8113C119.572 13.8113 119.964 13.8941 120.327 14.0545C120.689 14.2149 121.014 14.4492 121.281 14.7425C121.547 15.0358 121.75 15.3816 121.875 15.7577C122 16.1338 122.045 16.5319 122.007 16.9264C122.046 17.3214 122.001 17.7201 121.876 18.0968C121.752 18.4735 121.549 18.8199 121.283 19.1138C121.016 19.4076 120.691 19.6425 120.328 19.8032C119.965 19.9639 119.573 20.0469 119.176 20.0469C118.779 20.0469 118.387 19.9639 118.024 19.8032C117.661 19.6425 117.336 19.4076 117.069 19.1138C116.803 18.8199 116.6 18.4735 116.476 18.0968C116.351 17.7201 116.306 17.3214 116.345 16.9264ZM120.789 16.9264C120.789 15.625 120.204 14.864 119.178 14.864C118.148 14.864 117.569 15.625 117.569 16.9265C117.569 18.2383 118.148 18.9935 119.178 18.9935C120.204 18.9935 120.789 18.2331 120.789 16.9264Z" fill="white"/>
<path d="M123.597 13.9267H124.738V14.8805H124.826C124.977 14.5379 125.23 14.2508 125.551 14.059C125.872 13.8673 126.245 13.7805 126.618 13.8108C126.91 13.7889 127.203 13.8329 127.476 13.9397C127.749 14.0465 127.994 14.2133 128.194 14.4278C128.393 14.6422 128.542 14.8989 128.629 15.1786C128.716 15.4584 128.739 15.7541 128.696 16.0439V19.9306H127.511V16.3415C127.511 15.3766 127.092 14.8968 126.216 14.8968C126.017 14.8876 125.819 14.9213 125.635 14.9957C125.451 15.0702 125.285 15.1836 125.149 15.3281C125.013 15.4726 124.91 15.6448 124.846 15.833C124.783 16.0212 124.761 16.2208 124.782 16.4183V19.9306H123.597V13.9267Z" fill="white"/>
<path d="M135.391 12.4319V13.954H136.692V14.9521H135.391V18.0393C135.391 18.6682 135.651 18.9436 136.24 18.9436C136.391 18.9431 136.542 18.934 136.692 18.9163V19.9032C136.479 19.9413 136.264 19.9615 136.048 19.9638C134.73 19.9638 134.205 19.5002 134.205 18.3427V14.952H133.252V13.954H134.205V12.4319H135.391Z" fill="white"/>
<path d="M138.311 11.583H139.485V14.8916H139.579C139.736 14.5458 139.997 14.2571 140.324 14.0646C140.652 13.8721 141.031 13.7854 141.41 13.8161C141.7 13.8003 141.991 13.8488 142.26 13.9582C142.53 14.0676 142.772 14.2351 142.97 14.4489C143.167 14.6627 143.315 14.9174 143.403 15.195C143.491 15.4725 143.516 15.7659 143.477 16.0544V19.9307H142.291V16.3467C142.291 15.3877 141.845 14.902 141.007 14.902C140.804 14.8853 140.599 14.9133 140.407 14.984C140.215 15.0548 140.042 15.1665 139.898 15.3115C139.754 15.4565 139.643 15.6312 139.574 15.8234C139.504 16.0156 139.478 16.2206 139.496 16.4241V19.9306H138.311L138.311 11.583Z" fill="white"/>
<path d="M150.386 18.3093C150.225 18.8581 149.876 19.3327 149.401 19.6502C148.925 19.9678 148.353 20.108 147.785 20.0463C147.389 20.0568 146.996 19.981 146.633 19.8243C146.269 19.6676 145.944 19.4337 145.681 19.1388C145.417 18.844 145.22 18.4952 145.105 18.1168C144.989 17.7384 144.957 17.3393 145.011 16.9474C144.959 16.5542 144.991 16.1543 145.106 15.7747C145.222 15.3952 145.417 15.0448 145.68 14.7474C145.942 14.4499 146.265 14.2124 146.628 14.0508C146.99 13.8891 147.383 13.8073 147.779 13.8106C149.45 13.8106 150.458 14.952 150.458 16.8373V17.2508H146.218V17.3172C146.2 17.5375 146.227 17.7593 146.3 17.9683C146.372 18.1773 146.487 18.3689 146.637 18.5308C146.788 18.6928 146.971 18.8215 147.174 18.9087C147.377 18.9958 147.596 19.0396 147.817 19.0372C148.101 19.0712 148.388 19.0202 148.642 18.8905C148.897 18.7609 149.107 18.5586 149.246 18.3093L150.386 18.3093ZM146.218 16.3744H149.251C149.266 16.1729 149.238 15.9705 149.17 15.7803C149.102 15.59 148.995 15.416 148.856 15.2695C148.717 15.123 148.549 15.0073 148.362 14.9297C148.176 14.8522 147.975 14.8145 147.773 14.8191C147.568 14.8165 147.365 14.855 147.175 14.9323C146.985 15.0095 146.813 15.124 146.668 15.269C146.523 15.4139 146.408 15.5864 146.331 15.7763C146.254 15.9661 146.216 16.1695 146.218 16.3744H146.218Z" fill="white"/>
</svg>
