<svg width="291" height="118" viewBox="0 0 291 118" fill="none" xmlns="http://www.w3.org/2000/svg">
<path d="M291.001 9.35328V108.647C291.001 111.127 290.013 113.506 288.256 115.26C286.499 117.015 284.116 118 281.631 118H9.39677C7.57809 117.987 5.80272 117.445 4.28761 116.44C2.7725 115.436 1.58328 114.013 0.865278 112.345C0.147276 110.677 -0.0684095 108.836 0.24458 107.048C0.557569 105.259 1.38568 103.6 2.6277 102.274C13.7568 90.6084 19.9459 75.1049 19.905 58.9956C19.9423 42.8922 13.7533 27.3955 2.6277 15.7345C1.38282 14.4086 0.552231 12.7491 0.237626 10.9593C-0.0769789 9.16938 0.138051 7.32677 0.85639 5.65702C1.57473 3.98726 2.7652 2.56281 4.28207 1.55806C5.79894 0.553313 7.57637 0.0118632 9.39677 0L281.631 0C284.116 0 286.499 0.985433 288.256 2.73951C290.013 4.49359 291.001 6.87264 291.001 9.35328Z" fill="white"/>
</svg>
